<svg xmlns="http://www.w3.org/2000/svg" id="about" width="80" height="51" viewBox="0 0 80 51">
    <defs>
        <style>
            .cls-2{fill:#fff}.cls-3{fill:#5966fd}
        </style>
    </defs>
    <g id="Group_235" transform="translate(-500 -90)">
        <circle id="Ellipse_104" cx="5" cy="5" r="5" fill="#f5c37c" transform="translate(520.5 110.5)"/>
        <path id="Path_193" d="M525.5 121a5.5 5.5 0 1 1 5.5-5.5 5.507 5.507 0 0 1-5.5 5.5zm0-10a4.5 4.5 0 1 0 4.5 4.5 4.505 4.505 0 0 0-4.5-4.5z" class="cls-2"/>
        <circle id="Ellipse_105" cx="1.5" cy="1.5" r="1.5" class="cls-3" transform="translate(513.5 103.5)"/>
        <circle id="Ellipse_106" cx="2.5" cy="2.5" r="2.5" class="cls-3" transform="translate(541.5 96.5)"/>
        <circle id="Ellipse_107" cx="2.5" cy="2.5" r="2.5" class="cls-3" transform="translate(510.5 134.5)"/>
        <path id="Path_194" d="M525.5 100a15.407 15.407 0 0 0-9.5 3.278h.005A1.974 1.974 0 0 0 515 103a2 2 0 0 0-2 2 1.98 1.98 0 0 0 .28 1 15.482 15.482 0 1 0 12.222-6zm-10.5 4a1 1 0 1 1-1 1 1 1 0 0 1 1-1zm10.5 26a14.473 14.473 0 0 1-11.51-23.283A1.976 1.976 0 0 0 515 107a2 2 0 0 0 2-2 1.977 1.977 0 0 0-.287-1.016v.006A14.491 14.491 0 1 1 525.5 130z" class="cls-2"/>
    </g>
    <path id="Path_195" d="M580 115h-29.02a25.346 25.346 0 0 0-4.631-14.155l-.018.02A2.971 2.971 0 0 0 547 99a2.986 2.986 0 0 0-4.575-2.542h.006a25.487 25.487 0 1 0-32.215 39.442 2.987 2.987 0 0 0 5.117 2.965l-.009.013A25.48 25.48 0 0 0 550.987 116H580zm-36-18a2 2 0 1 1-2 2 2 2 0 0 1 2-2zm-31 42a2 2 0 1 1 2-2 2 2 0 0 1-2 2zm12.5 1a24.364 24.364 0 0 1-9.684-2v.006a2.984 2.984 0 0 0-5.083-2.948l.013-.016a24.486 24.486 0 1 1 30.933-37.92l.011-.011A2.972 2.972 0 0 0 541 99a2.99 2.99 0 0 0 4.612 2.522h-.005A24.481 24.481 0 0 1 525.5 140z" class="cls-2" transform="translate(-500 -90)"/>
    <path id="Rectangle_285" fill="none" d="M0 0H80V51H0z"/>
</svg>
