<svg xmlns="http://www.w3.org/2000/svg" width="24" height="24" viewBox="0 0 24 24">
    <path fill="#fff" d="M682.775 356.146H664.4a2.816 2.816 0 0 0-2.813 2.813v18.375a2.816 2.816 0 0 0 2.813 2.812h18.375a2.816 2.816 0 0 0 2.812-2.812v-18.375a2.815 2.815 0 0 0-2.812-2.813zm1.812 21.186a1.819 1.819 0 0 1-1.812 1.814h-5.344v-8.516h2.9l.479-2.906h-3.379v-2.015a1.383 1.383 0 0 1 1.359-1.407.366.366 0 0 1 .047 0h1.922V361.4h-1.922a4.311 4.311 0 0 0-4.311 4.313v2.015h-2.814v2.906h2.814v8.516H664.4a1.819 1.819 0 0 1-1.814-1.812V358.96a1.819 1.819 0 0 1 1.813-1.814h18.374a1.819 1.819 0 0 1 1.813 1.813z" transform="translate(-661.587 -356.146)"/>
</svg>
