<svg id="hero" xmlns="http://www.w3.org/2000/svg" width="45" height="68" viewBox="0 0 45 68">
  <defs>
    <style>
      .cls-1 {
        fill: none;
      }

      .cls-2 {
        fill: #f5c37c;
      }

      .cls-3 {
        fill: #fff;
      }

      .cls-4 {
        fill: #5966fd;
      }
    </style>
  </defs>
  <rect id="Rectangle_289" data-name="Rectangle 289" class="cls-1" width="68" height="45" transform="translate(0 68) rotate(-90)"/>
  <circle id="Ellipse_113" data-name="Ellipse 113" class="cls-2" cx="8" cy="8" r="8" transform="translate(14.5 7.5)"/>
  <g id="Rectangle_25" data-name="Rectangle 25" transform="translate(-502.5 -364)">
    <g id="Group_240" data-name="Group 240">
      <rect id="Rectangle_283" data-name="Rectangle 283" class="cls-3" width="1" height="20" transform="translate(524.5 412)"/>
    </g>
  </g>
  <g id="Group_241" data-name="Group 241" transform="translate(-502.5 -364)">
    <circle id="Ellipse_114" data-name="Ellipse 114" class="cls-4" cx="2.5" cy="2.5" r="2.5" transform="translate(522.5 392.5)"/>
  </g>
  <g id="Ellipse_15" data-name="Ellipse 15" transform="translate(-502.5 -364.5)">
    <g id="Group_242" data-name="Group 242">
      <circle id="Ellipse_115" data-name="Ellipse 115" class="cls-1" cx="2" cy="2" r="2" transform="translate(523 403)"/>
    </g>
    <g id="Group_243" data-name="Group 243">
      <path id="Path_202" data-name="Path 202" class="cls-3" d="M525,407a2,2,0,1,1,2-2A2,2,0,0,1,525,407Zm0-3a1,1,0,1,0,1,1A1,1,0,0,0,525,404Z"/>
    </g>
  </g>
  <path id="Path_203" data-name="Path 203" class="cls-3" d="M547.5,367.276c-1.1-1.912-6.075-.762-11.636,1.444a15.61,15.61,0,0,0-25.885,14.946c-4.692,3.713-8.162,7.437-7.059,9.349.383.663,1.246.963,2.473.963,2.149,0,5.417-.926,9.158-2.412a15.618,15.618,0,0,0,7.649,3.9,3.015,3.015,0,0,0,6.02,0,15.554,15.554,0,0,0,12.222-18.838c.829-.656,1.621-1.305,2.338-1.934C546.742,371.21,548.33,368.715,547.5,367.276Zm-8.2,8.968c-1.658,1.287-3.515,2.611-5.514,3.937,0-.012,0-.023,0-.035a8.578,8.578,0,0,0-4.324-7.439c2.279-1.136,4.338-2.068,6.169-2.816A14.625,14.625,0,0,1,539.3,376.244Zm-11.821,7.835q-2.83,1.635-5.409,2.947a7.567,7.567,0,1,1,10.708-6.881c0,.241-.014.479-.036.716C531.068,381.944,529.308,383.024,527.48,384.079Zm5-1.85a7.523,7.523,0,0,1-9.125,5.248c1.552-.807,3.107-1.645,4.629-2.523C529.533,384.059,531.036,383.146,532.48,382.229Zm-7.271-16.719a14.559,14.559,0,0,1,9.62,3.634c-2.181.9-4.417,1.943-6.524,3.01a8.548,8.548,0,0,0-11.565,6.678c-1.985,1.3-4.009,2.716-5.886,4.157a14.622,14.622,0,0,1,14.354-17.478Zm-21.417,27c-.513-.89,1.351-3.685,6.459-7.784a15.645,15.645,0,0,0,3.523,6.062C508.048,393,504.366,393.5,503.792,392.51Zm7.324-8.467c1.56-1.21,3.4-2.525,5.515-3.928l0,.03a8.579,8.579,0,0,0,4.328,7.442c-2.235,1.11-4.307,2.045-6.181,2.805A14.635,14.635,0,0,1,511.116,384.043ZM525.209,397.3a2.019,2.019,0,1,1,2.019-2.019A2.021,2.021,0,0,1,525.209,397.3Zm2.9-2.843a3.01,3.01,0,0,0-5.8.009,14.612,14.612,0,0,1-6.72-3.325c2.079-.863,4.283-1.891,6.508-3.014a8.549,8.549,0,0,0,11.583-6.674c2.13-1.39,4.116-2.785,5.887-4.141a14.579,14.579,0,0,1-11.455,17.145Zm14-20.526c-.6.529-1.263,1.073-1.948,1.622a15.633,15.633,0,0,0-3.531-6.066c6.118-2.383,9.477-2.6,9.992-1.711C547.012,368.451,546.062,370.464,542.113,373.936Z" transform="translate(-502.713 -364.5)"/>
</svg>
