<svg id="loading" xmlns="http://www.w3.org/2000/svg" width="66.381" height="101.142" viewBox="0 0 66.381 101.142">
  <defs>
    <style>
      .cls-1 {
        fill: #5966fd;
      }

      .cls-2 {
        fill: #f5c37c;
      }

      .cls-3 {
        fill: #fff;
      }
    </style>
  </defs>
  <g id="Group_249" data-name="Group 249" transform="translate(-716.789 -194.95)">
    <g id="Group_248" data-name="Group 248">
      <path id="Path_208" data-name="Path 208" class="cls-1" d="M763.9,208.21S759.68,213.3,749.98,213.3c-10.207,0-13.925-5.093-13.925-5.093s6.84-9.6,13.925-12.728C757.2,197.756,763.9,208.21,763.9,208.21Z"/>
    </g>
    <path id="Path_209" data-name="Path 209" class="cls-2" d="M754.673,275.482s2.1,7.77-4.693,12.5c-6.794-4.73-4.694-12.5-4.694-12.5Z"/>
    <path id="Path_210" data-name="Path 210" class="cls-3" d="M770.435,233.734c0-8.581-1.491-16.954-5.386-24.237-5.946-11.117-14.535-14.352-14.9-14.484l-.171-.063-.17.063c-.364.132-8.953,3.367-14.9,14.484-3.895,7.283-5.388,15.656-5.386,24.237a49.151,49.151,0,0,0-12.214,40l.116.563,18.233-6.495c.418,1.285.843,2.544,1.274,3.766l.056.162.144.092c.108.071.158.1,3.346.1v4.061h1.372c-.506,2.668-1.78,13.21,7.842,19.911l.286.2.287-.2c9.622-6.7,8.348-17.243,7.842-19.911h1.371v-4.06c3.18,0,3.24-.034,3.347-.105l.144-.092.056-.162c.431-1.222.856-2.481,1.274-3.766l18.233,6.495.116-.563A49.151,49.151,0,0,0,770.435,233.734Zm-20.456-37.713c1.164.486,7.984,3.62,13.2,12.218-1.147,1.113-5.337,4.564-13.2,4.564-8.262,0-12.168-3.434-13.214-4.541C741.985,199.647,748.815,196.507,749.979,196.021Zm-31.787,76.936a48.284,48.284,0,0,1,11.347-37.734c.219,10.884,2.756,22.016,5.814,31.621Zm31.787,21.912c-9.092-6.562-7.535-16.817-7.11-18.887h1.809a12.371,12.371,0,0,0,5.015,12.411l.286.2.287-.2a12.371,12.371,0,0,0,5.015-12.411h1.809C757.515,278.052,759.072,288.307,749.979,294.869Zm0-7.5a11.275,11.275,0,0,1-4.293-11.385h8.584C754.559,277.515,755.273,283.459,749.979,287.367Zm8.5-12.385h-17v-3.061c1.876,0,4.581-.01,8.5-.024,3.924.015,6.625.023,8.5.025Zm3.717-4.074c-1.487.021-7.866.005-12.215-.011h0c-4.349.016-10.727.032-12.215.011-6.25-17.879-11.608-42.834-2.007-60.872.159-.3.327-.575.491-.863,1.418,1.426,5.513,4.63,13.732,4.63,7.9,0,12.229-3.27,13.715-4.662.17.3.344.584.509.895C773.8,228.074,768.446,253.029,762.2,270.908Zm19.571,2.049-17.161-6.113c3.058-9.6,5.595-20.737,5.814-31.621A48.284,48.284,0,0,1,781.767,272.957Z"/>
  </g>
  <path id="Path_211" data-name="Path 211" class="cls-3" d="M759.525,224.937a13.5,13.5,0,1,0,3.954,9.545A13.41,13.41,0,0,0,759.525,224.937Zm-18.384,18.384a12.5,12.5,0,1,1,21.338-8.839c0,.33-.022.655-.047.979a21.2,21.2,0,0,0-2.782-.492c.017-.161.041-.321.049-.483a8.59,8.59,0,0,0-.469-3.325,3.25,3.25,0,0,0-.532-4.237,3.7,3.7,0,0,0-2.265-1.1,2.761,2.761,0,0,0-1.94.538,8.746,8.746,0,0,0-3.419-.5,9.921,9.921,0,0,0-6.135,2.63l-1.035-1.035a1.393,1.393,0,0,0-1.272-1.966h0a1.4,1.4,0,1,0,0,2.8h0a1.4,1.4,0,0,0,.566-.126l1.035,1.035a9.518,9.518,0,0,0-2.127,9.554,2.751,2.751,0,0,0-.532,1.933,3.7,3.7,0,0,0,1.1,2.265,3.653,3.653,0,0,0,2.552,1.106,2.727,2.727,0,0,0,1.691-.573,8.552,8.552,0,0,0,2.834.482,9.018,9.018,0,0,0,.969-.054,21.053,21.053,0,0,0,.548,2.994A12.473,12.473,0,0,1,741.141,243.321Zm15.22-1.995,2.214,2.215a12.421,12.421,0,0,1-6.313,3.221,20.327,20.327,0,0,1-.556-3.011A10.078,10.078,0,0,0,756.361,241.326Zm-.337-1.043c-3.315,3.313-8.419,3.6-11.383.637a7.794,7.794,0,0,1-.785-9.552l1.846,1.845c-1.361,2.344-1.389,4.975.141,6.505a4.177,4.177,0,0,0,3.022,1.157,7.794,7.794,0,0,0,5.321-2.43,8.211,8.211,0,0,0,2.358-4.352,4.435,4.435,0,0,0-1.085-3.99c-1.529-1.529-4.16-1.5-6.5-.141l-1.849-1.849a8.7,8.7,0,0,1,4.021-1.253c.144-.007.289-.011.432-.011a7.025,7.025,0,0,1,7.141,7.586A8.959,8.959,0,0,1,756.024,240.283Zm-13.388-.4a7.636,7.636,0,0,0,3.13,3.1,2.489,2.489,0,0,1-2.388-.739,2.7,2.7,0,0,1-.808-1.648A1.981,1.981,0,0,1,742.636,239.888Zm2.641-10.352a9.628,9.628,0,0,1,.988-.85l1.837,1.836a9.328,9.328,0,0,0-.987.853,9.188,9.188,0,0,0-.852.985l-1.835-1.835A9.477,9.477,0,0,1,745.277,229.536Zm2.545,2.546a6.827,6.827,0,0,1,4.606-2.151,3.205,3.205,0,0,1,2.324.879,3.47,3.47,0,0,1,.806,3.118,7.2,7.2,0,0,1-2.079,3.81c-2.261,2.26-5.368,2.831-6.929,1.273S745.562,234.343,747.822,232.082Zm10.9-2.048a7.64,7.64,0,0,0-3.1-3.143,1.963,1.963,0,0,1,.72-.068,2.7,2.7,0,0,1,1.648.808A2.48,2.48,0,0,1,758.727,230.034Zm-15.815-2.861a.4.4,0,0,1-.564,0,.4.4,0,0,1,.283-.683.394.394,0,0,1,.281.117h0a.4.4,0,0,1,0,.565Zm16.359,15.65-2.2-2.2a10.048,10.048,0,0,0,2.425-4.662,20.3,20.3,0,0,1,2.816.5A12.371,12.371,0,0,1,759.271,242.823Z" transform="translate(-716.789 -194.95)"/>
</svg>
