<svg xmlns="http://www.w3.org/2000/svg" width="95" height="25.783" viewBox="0 0 95 25.783">
  <defs>
    <style>
      .cls-1 {
        fill: #fff;
        fill-rule: evenodd;
      }
    </style>
  </defs>
  <path id="logo" class="cls-1" d="M818.042,125.208v-.048a4.91,4.91,0,0,0-4.622-4.94h-2.391a4.938,4.938,0,0,0-4.781,4.94v2.353c-.361,5.651,7.916,6.266,7.916,10.664v2.288a2.019,2.019,0,1,1-4.038.053V136.51L806.25,138.3c0,.76,0,2.1,0,2.855a4.718,4.718,0,0,0,4.622,4.729h2.391a4.751,4.751,0,0,0,4.782-4.729V137.9c.359-5.632-7.916-6.091-7.916-10.664v-1.6a2.02,2.02,0,1,1,4.038,0v3.231l3.878-1.79v-1.87Zm64.946-4.617h2.683v3.432l-3.825,1.766v-5.2Zm2.683,5.7c0-1.145-2.113-1.293-3.825-.5V146h3.825V126.291ZM869.536,146h-2.417V120.591h6.641a4.824,4.824,0,0,1,4.834,4.675v9.125c0,3.613-1.753,6.216-5.419,6.216h-2.285V146Zm-40.261-7.751v2.213a2.046,2.046,0,1,1-4.091,0v-7.44c0-1.145-2.113-1.293-3.826-.5v8.633a4.754,4.754,0,0,0,4.782,4.729h2.337a4.671,4.671,0,0,0,4.569-4.729V136.51c-1.292.574-2.508,1.158-3.772,1.741Zm-4.091-7.5-3.826,1.766v-7.575a4.757,4.757,0,0,1,4.782-4.728h2.337a4.674,4.674,0,0,1,4.569,4.728v2.18l-3.772,1.741v-3.283a2.046,2.046,0,0,0-4.091,0v5.171Zm15.974-10.537a4.76,4.76,0,0,0-4.781,4.728v16.261a4.778,4.778,0,0,0,4.781,4.675h2.922a4.669,4.669,0,0,0,4.622-4.675V124.947a4.719,4.719,0,0,0-4.622-4.728Zm1.063,22.317a2.07,2.07,0,0,1-2.019-2.072V125.638a2.063,2.063,0,0,1,2.019-2.072h.584a2.033,2.033,0,0,1,2.019,2.072v14.827a2.036,2.036,0,0,1-2.019,2.072Zm21.5,3.466v-4.424s.106-2.762-1.382-3.506c1.541-.372,1.382-3.294,1.382-3.294v-9.512a4.685,4.685,0,0,0-4.675-4.675h-6.96V146h3.826v-6.176h2.019c1.009,0,1.966.589,1.966,2.391V146Zm-7.81-9.789V124.151h2.019a1.8,1.8,0,0,1,1.966,1.912v8.025c0,1.7-.961,2.126-1.966,2.126Zm19.018-.972v-9.285a1.946,1.946,0,0,0-2.019-1.806h-2.019v12.9h2.019a1.953,1.953,0,0,0,2.019-1.807Zm18.763-15.022a4.764,4.764,0,0,0-4.782,4.728v16.261a4.779,4.779,0,0,0,4.782,4.675h2.922a4.67,4.67,0,0,0,4.622-4.675V124.947a4.72,4.72,0,0,0-4.622-4.728Zm1.063,22.317a2.072,2.072,0,0,1-2.019-2.072V125.638a2.063,2.063,0,0,1,2.019-2.072h.584a2.034,2.034,0,0,1,2.019,2.072v14.827a2.039,2.039,0,0,1-2.019,2.072Z" transform="translate(-806.236 -120.219)"/>
</svg>
