<svg xmlns="http://www.w3.org/2000/svg" width="1204" height="326.767" viewBox="0 0 1204 326.767">
  <defs>
    <style>
      .cls-1 {
        fill-rule: evenodd;
        opacity: 0.04;
      }
    </style>
  </defs>
  <path id="logo" class="cls-1" d="M955.861,183.445v-.613c0-32.315-26.287-62.613-58.578-62.613H866.978c-33.619,0-60.6,29.661-60.6,62.613v29.824c-4.57,71.621,100.327,79.419,100.327,135.15V376.8c0,14.765-11.451,26.256-25.588,26.256a25.574,25.574,0,0,1-25.589-25.588V326.687l-49.127,22.679c0,9.629-.023,26.558-.023,36.187,0,32.276,26.231,59.929,58.578,59.929h30.3c33.665,0,60.6-26.938,60.6-59.929V344.284c4.554-71.381-100.329-77.192-100.329-135.158V188.891c0-14.811,11.445-26.256,25.589-26.256s25.588,11.491,25.588,26.256v40.943l49.152-22.687v-23.7Zm823.109-58.516h34v43.5L1764.493,190.8V124.928Zm34,72.241c0-14.516-26.775-16.386-48.477-6.37V446.986h48.477V197.17ZM1608.481,446.986H1577.85V124.928h84.167c32.26,0,61.271,26.263,61.271,59.254V299.834c0,45.784-22.221,78.775-68.681,78.775H1625.65v68.378Zm-510.255-98.234V376.8a25.9,25.9,0,0,1-26.264,26.256c-14.136,0-25.581-11.444-25.581-26.256V282.509c0-14.517-26.782-16.386-48.483-6.37V385.552c0,32.928,26.938,59.929,60.6,59.929h29.623c32.353,0,57.911-27.606,57.911-59.929V326.687c-16.372,7.278-31.788,14.672-47.81,22.066Zm-51.845-94.99L997.9,276.139v-96c0-32.921,27-59.921,60.6-59.921h29.623c32.291,0,57.911,27.605,57.911,59.921v27.629l-47.81,22.066v-41.61c0-14.1-11.444-25.588-26.264-25.588a25.572,25.572,0,0,0-25.581,25.588v65.538Zm202.449-133.543c-33.532,0-60.6,27-60.6,59.921V386.227c0,32.261,27.606,59.254,60.6,59.254h37.033c32.354,0,58.578-26.931,58.578-59.254V180.14c0-32.315-26.294-59.921-58.578-59.921Zm13.47,282.837c-14.027,0-25.588-12.119-25.588-26.256V188.891c0-14.136,11.429-26.256,25.588-26.256h7.4c14.144,0,25.587,11.514,25.587,26.256V376.8c0,14.749-11.513,26.256-25.587,26.256Zm272.479,43.93V390.922s1.343-35.007-17.512-44.434c19.528-4.71,17.512-41.75,17.512-41.75V184.182a59.38,59.38,0,0,0-59.254-59.254h-88.21V446.986H1435.8V368.708h25.588c12.785,0,24.913,7.464,24.913,30.3v47.98ZM1435.8,322.924V170.046h25.588c12.785,0,24.913,6.789,24.913,24.238v101.7c0,21.492-12.182,26.938-24.913,26.938ZM1676.827,310.6V192.934c0-12.8-12.119-22.888-25.588-22.888H1625.65V333.5h25.589c13.407,0,25.588-10.148,25.588-22.9Zm237.8-190.384c-33.494,0-60.6,27.016-60.6,59.921V386.227c0,32.238,27.606,59.254,60.6,59.254h37.033c32.346,0,58.578-26.931,58.578-59.254V180.14c0-32.315-26.317-59.921-58.578-59.921Zm13.47,282.837c-13.989,0-25.589-12.119-25.589-26.256V188.891c0-14.136,11.43-26.256,25.589-26.256h7.4c14.136,0,25.587,11.53,25.587,26.256V376.8c0,14.726-11.536,26.256-25.587,26.256Z" transform="translate(-806.237 -120.219)"/>
</svg>
