<svg xmlns="http://www.w3.org/2000/svg" width="1239" height="674" viewBox="0 0 1239 674">
  <defs>
    <style>
      .cls-1 {
        fill: #fff;
        opacity: 0.2;
      }
    </style>
  </defs>
  <g id="offer-bg" transform="translate(-101 -1780)">
    <g id="Group_175" data-name="Group 175">
      <circle id="Ellipse_83" data-name="Ellipse 83" class="cls-1" cx="3" cy="3" r="3" transform="translate(101 1780)"/>
      <circle id="Ellipse_84" data-name="Ellipse 84" class="cls-1" cx="3" cy="3" r="3" transform="translate(1334 1780)"/>
      <circle id="Ellipse_86" data-name="Ellipse 86" class="cls-1" cx="3" cy="3" r="3" transform="translate(1181 1780)"/>
      <circle id="Ellipse_88" data-name="Ellipse 88" class="cls-1" cx="3" cy="3" r="3" transform="translate(919 1780)"/>
      <circle id="Ellipse_90" data-name="Ellipse 90" class="cls-1" cx="3" cy="3" r="3" transform="translate(767 1780)"/>
      <circle id="Ellipse_92" data-name="Ellipse 92" class="cls-1" cx="3" cy="3" r="3" transform="translate(565 1780)"/>
      <circle id="Ellipse_94" data-name="Ellipse 94" class="cls-1" cx="3" cy="3" r="3" transform="translate(303 1780)"/>
      <circle id="Ellipse_85" data-name="Ellipse 85" class="cls-1" cx="3" cy="3" r="3" transform="translate(1227 1780)"/>
      <circle id="Ellipse_87" data-name="Ellipse 87" class="cls-1" cx="3" cy="3" r="3" transform="translate(1025 1780)"/>
      <circle id="Ellipse_89" data-name="Ellipse 89" class="cls-1" cx="3" cy="3" r="3" transform="translate(813 1780)"/>
      <circle id="Ellipse_91" data-name="Ellipse 91" class="cls-1" cx="3" cy="3" r="3" transform="translate(611 1780)"/>
      <circle id="Ellipse_93" data-name="Ellipse 93" class="cls-1" cx="3" cy="3" r="3" transform="translate(409 1780)"/>
      <circle id="Ellipse_95" data-name="Ellipse 95" class="cls-1" cx="3" cy="3" r="3" transform="translate(147 1780)"/>
    </g>
    <g id="Group_178" data-name="Group 178" transform="translate(0 152)">
      <circle id="Ellipse_83-2" data-name="Ellipse 83" class="cls-1" cx="3" cy="3" r="3" transform="translate(101 1780)"/>
      <circle id="Ellipse_84-2" data-name="Ellipse 84" class="cls-1" cx="3" cy="3" r="3" transform="translate(1334 1780)"/>
      <circle id="Ellipse_86-2" data-name="Ellipse 86" class="cls-1" cx="3" cy="3" r="3" transform="translate(1181 1780)"/>
      <path id="Path_132" data-name="Path 132" class="cls-1" d="M3,0A3,3,0,1,1,0,3,3,3,0,0,1,3,0Z" transform="translate(919 1780)"/>
      <circle id="Ellipse_90-2" data-name="Ellipse 90" class="cls-1" cx="3" cy="3" r="3" transform="translate(767 1780)"/>
      <circle id="Ellipse_92-2" data-name="Ellipse 92" class="cls-1" cx="3" cy="3" r="3" transform="translate(565 1780)"/>
      <circle id="Ellipse_94-2" data-name="Ellipse 94" class="cls-1" cx="3" cy="3" r="3" transform="translate(303 1780)"/>
      <path id="Path_133" data-name="Path 133" class="cls-1" d="M3,0A3,3,0,1,1,0,3,3,3,0,0,1,3,0Z" transform="translate(1227 1780)"/>
      <circle id="Ellipse_87-2" data-name="Ellipse 87" class="cls-1" cx="3" cy="3" r="3" transform="translate(1025 1780)"/>
      <circle id="Ellipse_89-2" data-name="Ellipse 89" class="cls-1" cx="3" cy="3" r="3" transform="translate(813 1780)"/>
      <circle id="Ellipse_91-2" data-name="Ellipse 91" class="cls-1" cx="3" cy="3" r="3" transform="translate(611 1780)"/>
      <circle id="Ellipse_93-2" data-name="Ellipse 93" class="cls-1" cx="3" cy="3" r="3" transform="translate(409 1780)"/>
      <circle id="Ellipse_95-2" data-name="Ellipse 95" class="cls-1" cx="3" cy="3" r="3" transform="translate(147 1780)"/>
    </g>
    <g id="Group_181" data-name="Group 181" transform="translate(0 516)">
      <circle id="Ellipse_83-3" data-name="Ellipse 83" class="cls-1" cx="3" cy="3" r="3" transform="translate(101 1780)"/>
      <circle id="Ellipse_84-3" data-name="Ellipse 84" class="cls-1" cx="3" cy="3" r="3" transform="translate(1334 1780)"/>
      <circle id="Ellipse_86-3" data-name="Ellipse 86" class="cls-1" cx="3" cy="3" r="3" transform="translate(1181 1780)"/>
      <circle id="Ellipse_88-2" data-name="Ellipse 88" class="cls-1" cx="3" cy="3" r="3" transform="translate(919 1780)"/>
      <circle id="Ellipse_90-3" data-name="Ellipse 90" class="cls-1" cx="3" cy="3" r="3" transform="translate(767 1780)"/>
      <circle id="Ellipse_92-3" data-name="Ellipse 92" class="cls-1" cx="3" cy="3" r="3" transform="translate(565 1780)"/>
      <circle id="Ellipse_94-3" data-name="Ellipse 94" class="cls-1" cx="3" cy="3" r="3" transform="translate(303 1780)"/>
      <circle id="Ellipse_85-2" data-name="Ellipse 85" class="cls-1" cx="3" cy="3" r="3" transform="translate(1227 1780)"/>
      <circle id="Ellipse_87-3" data-name="Ellipse 87" class="cls-1" cx="3" cy="3" r="3" transform="translate(1025 1780)"/>
      <circle id="Ellipse_89-3" data-name="Ellipse 89" class="cls-1" cx="3" cy="3" r="3" transform="translate(813 1780)"/>
      <circle id="Ellipse_91-3" data-name="Ellipse 91" class="cls-1" cx="3" cy="3" r="3" transform="translate(611 1780)"/>
      <circle id="Ellipse_93-3" data-name="Ellipse 93" class="cls-1" cx="3" cy="3" r="3" transform="translate(409 1780)"/>
      <circle id="Ellipse_95-3" data-name="Ellipse 95" class="cls-1" cx="3" cy="3" r="3" transform="translate(147 1780)"/>
    </g>
    <g id="Group_176" data-name="Group 176" transform="translate(0 106)">
      <circle id="Ellipse_83-4" data-name="Ellipse 83" class="cls-1" cx="3" cy="3" r="3" transform="translate(101 1780)"/>
      <circle id="Ellipse_84-4" data-name="Ellipse 84" class="cls-1" cx="3" cy="3" r="3" transform="translate(1334 1780)"/>
      <circle id="Ellipse_86-4" data-name="Ellipse 86" class="cls-1" cx="3" cy="3" r="3" transform="translate(1181 1780)"/>
      <circle id="Ellipse_88-3" data-name="Ellipse 88" class="cls-1" cx="3" cy="3" r="3" transform="translate(919 1780)"/>
      <circle id="Ellipse_90-4" data-name="Ellipse 90" class="cls-1" cx="3" cy="3" r="3" transform="translate(767 1780)"/>
      <circle id="Ellipse_92-4" data-name="Ellipse 92" class="cls-1" cx="3" cy="3" r="3" transform="translate(565 1780)"/>
      <circle id="Ellipse_94-4" data-name="Ellipse 94" class="cls-1" cx="3" cy="3" r="3" transform="translate(303 1780)"/>
      <circle id="Ellipse_85-3" data-name="Ellipse 85" class="cls-1" cx="3" cy="3" r="3" transform="translate(1227 1780)"/>
      <circle id="Ellipse_87-4" data-name="Ellipse 87" class="cls-1" cx="3" cy="3" r="3" transform="translate(1025 1780)"/>
      <circle id="Ellipse_89-4" data-name="Ellipse 89" class="cls-1" cx="3" cy="3" r="3" transform="translate(813 1780)"/>
      <circle id="Ellipse_91-4" data-name="Ellipse 91" class="cls-1" cx="3" cy="3" r="3" transform="translate(611 1780)"/>
      <circle id="Ellipse_93-4" data-name="Ellipse 93" class="cls-1" cx="3" cy="3" r="3" transform="translate(409 1780)"/>
      <circle id="Ellipse_95-4" data-name="Ellipse 95" class="cls-1" cx="3" cy="3" r="3" transform="translate(147 1780)"/>
    </g>
    <g id="Group_177" data-name="Group 177" transform="translate(1441 3824) rotate(180)">
      <circle id="Ellipse_83-5" data-name="Ellipse 83" class="cls-1" cx="3" cy="3" r="3" transform="translate(101 1780)"/>
      <circle id="Ellipse_84-5" data-name="Ellipse 84" class="cls-1" cx="3" cy="3" r="3" transform="translate(1334 1780)"/>
      <circle id="Ellipse_86-5" data-name="Ellipse 86" class="cls-1" cx="3" cy="3" r="3" transform="translate(1181 1780)"/>
      <circle id="Ellipse_88-4" data-name="Ellipse 88" class="cls-1" cx="3" cy="3" r="3" transform="translate(919 1780)"/>
      <circle id="Ellipse_90-5" data-name="Ellipse 90" class="cls-1" cx="3" cy="3" r="3" transform="translate(767 1780)"/>
      <circle id="Ellipse_92-5" data-name="Ellipse 92" class="cls-1" cx="3" cy="3" r="3" transform="translate(565 1780)"/>
      <circle id="Ellipse_94-5" data-name="Ellipse 94" class="cls-1" cx="3" cy="3" r="3" transform="translate(303 1780)"/>
      <circle id="Ellipse_85-4" data-name="Ellipse 85" class="cls-1" cx="3" cy="3" r="3" transform="translate(1227 1780)"/>
      <circle id="Ellipse_87-5" data-name="Ellipse 87" class="cls-1" cx="3" cy="3" r="3" transform="translate(1025 1780)"/>
      <circle id="Ellipse_89-5" data-name="Ellipse 89" class="cls-1" cx="3" cy="3" r="3" transform="translate(813 1780)"/>
      <circle id="Ellipse_91-5" data-name="Ellipse 91" class="cls-1" cx="3" cy="3" r="3" transform="translate(611 1780)"/>
      <circle id="Ellipse_93-5" data-name="Ellipse 93" class="cls-1" cx="3" cy="3" r="3" transform="translate(409 1780)"/>
      <circle id="Ellipse_95-5" data-name="Ellipse 95" class="cls-1" cx="3" cy="3" r="3" transform="translate(147 1780)"/>
    </g>
    <g id="Group_180" data-name="Group 180" transform="translate(1441 3976) rotate(180)">
      <circle id="Ellipse_83-6" data-name="Ellipse 83" class="cls-1" cx="3" cy="3" r="3" transform="translate(101 1780)"/>
      <circle id="Ellipse_84-6" data-name="Ellipse 84" class="cls-1" cx="3" cy="3" r="3" transform="translate(1334 1780)"/>
      <circle id="Ellipse_86-6" data-name="Ellipse 86" class="cls-1" cx="3" cy="3" r="3" transform="translate(1181 1780)"/>
      <circle id="Ellipse_88-5" data-name="Ellipse 88" class="cls-1" cx="3" cy="3" r="3" transform="translate(919 1780)"/>
      <circle id="Ellipse_90-6" data-name="Ellipse 90" class="cls-1" cx="3" cy="3" r="3" transform="translate(767 1780)"/>
      <circle id="Ellipse_92-6" data-name="Ellipse 92" class="cls-1" cx="3" cy="3" r="3" transform="translate(565 1780)"/>
      <circle id="Ellipse_94-6" data-name="Ellipse 94" class="cls-1" cx="3" cy="3" r="3" transform="translate(303 1780)"/>
      <circle id="Ellipse_85-5" data-name="Ellipse 85" class="cls-1" cx="3" cy="3" r="3" transform="translate(1227 1780)"/>
      <circle id="Ellipse_87-6" data-name="Ellipse 87" class="cls-1" cx="3" cy="3" r="3" transform="translate(1025 1780)"/>
      <circle id="Ellipse_89-6" data-name="Ellipse 89" class="cls-1" cx="3" cy="3" r="3" transform="translate(813 1780)"/>
      <circle id="Ellipse_91-6" data-name="Ellipse 91" class="cls-1" cx="3" cy="3" r="3" transform="translate(611 1780)"/>
      <circle id="Ellipse_93-6" data-name="Ellipse 93" class="cls-1" cx="3" cy="3" r="3" transform="translate(409 1780)"/>
      <circle id="Ellipse_95-6" data-name="Ellipse 95" class="cls-1" cx="3" cy="3" r="3" transform="translate(147 1780)"/>
    </g>
    <g id="Group_179" data-name="Group 179" transform="translate(1441 3930) rotate(180)">
      <circle id="Ellipse_83-7" data-name="Ellipse 83" class="cls-1" cx="3" cy="3" r="3" transform="translate(101 1780)"/>
      <circle id="Ellipse_84-7" data-name="Ellipse 84" class="cls-1" cx="3" cy="3" r="3" transform="translate(1334 1780)"/>
      <circle id="Ellipse_86-7" data-name="Ellipse 86" class="cls-1" cx="3" cy="3" r="3" transform="translate(1181 1780)"/>
      <circle id="Ellipse_88-6" data-name="Ellipse 88" class="cls-1" cx="3" cy="3" r="3" transform="translate(919 1780)"/>
      <circle id="Ellipse_90-7" data-name="Ellipse 90" class="cls-1" cx="3" cy="3" r="3" transform="translate(767 1780)"/>
      <circle id="Ellipse_92-7" data-name="Ellipse 92" class="cls-1" cx="3" cy="3" r="3" transform="translate(565 1780)"/>
      <circle id="Ellipse_94-7" data-name="Ellipse 94" class="cls-1" cx="3" cy="3" r="3" transform="translate(303 1780)"/>
      <circle id="Ellipse_85-6" data-name="Ellipse 85" class="cls-1" cx="3" cy="3" r="3" transform="translate(1227 1780)"/>
      <circle id="Ellipse_87-7" data-name="Ellipse 87" class="cls-1" cx="3" cy="3" r="3" transform="translate(1025 1780)"/>
      <circle id="Ellipse_89-7" data-name="Ellipse 89" class="cls-1" cx="3" cy="3" r="3" transform="translate(813 1780)"/>
      <circle id="Ellipse_91-7" data-name="Ellipse 91" class="cls-1" cx="3" cy="3" r="3" transform="translate(611 1780)"/>
      <circle id="Ellipse_93-7" data-name="Ellipse 93" class="cls-1" cx="3" cy="3" r="3" transform="translate(409 1780)"/>
      <circle id="Ellipse_95-7" data-name="Ellipse 95" class="cls-1" cx="3" cy="3" r="3" transform="translate(147 1780)"/>
    </g>
    <g id="Group_212" data-name="Group 212" transform="translate(0 668)">
      <circle id="Ellipse_83-8" data-name="Ellipse 83" class="cls-1" cx="3" cy="3" r="3" transform="translate(101 1780)"/>
      <circle id="Ellipse_84-8" data-name="Ellipse 84" class="cls-1" cx="3" cy="3" r="3" transform="translate(1334 1780)"/>
      <circle id="Ellipse_86-8" data-name="Ellipse 86" class="cls-1" cx="3" cy="3" r="3" transform="translate(1181 1780)"/>
      <circle id="Ellipse_88-7" data-name="Ellipse 88" class="cls-1" cx="3" cy="3" r="3" transform="translate(919 1780)"/>
      <circle id="Ellipse_90-8" data-name="Ellipse 90" class="cls-1" cx="3" cy="3" r="3" transform="translate(767 1780)"/>
      <circle id="Ellipse_92-8" data-name="Ellipse 92" class="cls-1" cx="3" cy="3" r="3" transform="translate(565 1780)"/>
      <circle id="Ellipse_94-8" data-name="Ellipse 94" class="cls-1" cx="3" cy="3" r="3" transform="translate(303 1780)"/>
      <circle id="Ellipse_85-7" data-name="Ellipse 85" class="cls-1" cx="3" cy="3" r="3" transform="translate(1227 1780)"/>
      <circle id="Ellipse_87-8" data-name="Ellipse 87" class="cls-1" cx="3" cy="3" r="3" transform="translate(1025 1780)"/>
      <circle id="Ellipse_89-8" data-name="Ellipse 89" class="cls-1" cx="3" cy="3" r="3" transform="translate(813 1780)"/>
      <circle id="Ellipse_91-8" data-name="Ellipse 91" class="cls-1" cx="3" cy="3" r="3" transform="translate(611 1780)"/>
      <circle id="Ellipse_93-8" data-name="Ellipse 93" class="cls-1" cx="3" cy="3" r="3" transform="translate(409 1780)"/>
      <circle id="Ellipse_95-8" data-name="Ellipse 95" class="cls-1" cx="3" cy="3" r="3" transform="translate(147 1780)"/>
    </g>
    <g id="Group_213" data-name="Group 213" transform="translate(0 622)">
      <circle id="Ellipse_83-9" data-name="Ellipse 83" class="cls-1" cx="3" cy="3" r="3" transform="translate(101 1780)"/>
      <circle id="Ellipse_84-9" data-name="Ellipse 84" class="cls-1" cx="3" cy="3" r="3" transform="translate(1334 1780)"/>
      <circle id="Ellipse_86-9" data-name="Ellipse 86" class="cls-1" cx="3" cy="3" r="3" transform="translate(1181 1780)"/>
      <circle id="Ellipse_88-8" data-name="Ellipse 88" class="cls-1" cx="3" cy="3" r="3" transform="translate(919 1780)"/>
      <circle id="Ellipse_90-9" data-name="Ellipse 90" class="cls-1" cx="3" cy="3" r="3" transform="translate(767 1780)"/>
      <circle id="Ellipse_92-9" data-name="Ellipse 92" class="cls-1" cx="3" cy="3" r="3" transform="translate(565 1780)"/>
      <circle id="Ellipse_94-9" data-name="Ellipse 94" class="cls-1" cx="3" cy="3" r="3" transform="translate(303 1780)"/>
      <circle id="Ellipse_85-8" data-name="Ellipse 85" class="cls-1" cx="3" cy="3" r="3" transform="translate(1227 1780)"/>
      <circle id="Ellipse_87-9" data-name="Ellipse 87" class="cls-1" cx="3" cy="3" r="3" transform="translate(1025 1780)"/>
      <circle id="Ellipse_89-9" data-name="Ellipse 89" class="cls-1" cx="3" cy="3" r="3" transform="translate(813 1780)"/>
      <circle id="Ellipse_91-9" data-name="Ellipse 91" class="cls-1" cx="3" cy="3" r="3" transform="translate(611 1780)"/>
      <circle id="Ellipse_93-9" data-name="Ellipse 93" class="cls-1" cx="3" cy="3" r="3" transform="translate(409 1780)"/>
      <circle id="Ellipse_95-9" data-name="Ellipse 95" class="cls-1" cx="3" cy="3" r="3" transform="translate(147 1780)"/>
    </g>
  </g>
</svg>
