<svg id="offer" xmlns="http://www.w3.org/2000/svg" width="80" height="51" viewBox="0 0 80 51">
  <defs>
    <style>
      .cls-1 {
        fill: #f5c37c;
      }

      .cls-2 {
        fill: #5966fd;
      }

      .cls-3 {
        fill: #fff;
      }

      .cls-4 {
        fill: none;
      }
    </style>
  </defs>
  <circle id="Ellipse_108" data-name="Ellipse 108" class="cls-1" cx="10" cy="10" r="10" transform="translate(30.5 0.5)"/>
  <g id="Group_237" data-name="Group 237" transform="translate(-500 -150)">
    <circle id="Ellipse_109" data-name="Ellipse 109" class="cls-2" cx="2.5" cy="2.5" r="2.5" transform="translate(501 195)"/>
  </g>
  <g id="Group_238" data-name="Group 238" transform="translate(-500 -150)">
    <path id="Path_196" data-name="Path 196" class="cls-3" d="M503.5,200.5a3,3,0,1,1,3-3A3,3,0,0,1,503.5,200.5Zm0-5a2,2,0,1,0,2,2A2,2,0,0,0,503.5,195.5Z"/>
  </g>
  <g id="Path_15" data-name="Path 15" transform="translate(-500 -150)">
    <rect id="Rectangle_281" data-name="Rectangle 281" class="cls-3" width="10" height="1" transform="translate(512.5 191)"/>
  </g>
  <g id="Path_16" data-name="Path 16" transform="translate(-500 -150)">
    <rect id="Rectangle_282" data-name="Rectangle 282" class="cls-3" width="10" height="1" transform="translate(507.5 167)"/>
  </g>
  <path id="Path_197" data-name="Path 197" class="cls-3" d="M580,175H550.988a25.349,25.349,0,0,0-1.726-8.728,10.489,10.489,0,0,0-14.534-14.534A25.5,25.5,0,1,0,550.987,176H580Zm-39.5-24a9.5,9.5,0,1,1-9.5,9.5A9.511,9.511,0,0,1,540.5,151Zm-15,49a24.542,24.542,0,0,1-22.978-16H531.5v-1H502.179a24.37,24.37,0,0,1-1.166-7H526.5v-1H501.013a24.431,24.431,0,0,1,32.746-22.54,10.493,10.493,0,1,0,14.781,14.781A24.438,24.438,0,0,1,525.5,200Z" transform="translate(-500 -150)"/>
  <rect id="Rectangle_286" data-name="Rectangle 286" class="cls-4" width="80" height="51"/>
</svg>
