<svg xmlns="http://www.w3.org/2000/svg" id="partners" width="80" height="51" viewBox="0 0 80 51">
    <defs>
        <style>
            .cls-3{fill:#5966fd}
        </style>
    </defs>
    <path id="Rectangle_290" fill="none" d="M0 0H80V51H0z"/>
    <g id="Group_246" transform="translate(-500.099 -213.532)">
        <g id="Group_245">
            <circle id="Ellipse_116" cx="14.5" cy="14.5" r="14.5" fill="#f5c37c" transform="translate(510.599 224.53)"/>
        </g>
        <circle id="Ellipse_117" cx="1.5" cy="1.5" r="1.5" class="cls-3" transform="translate(533.099 220.03)"/>
        <circle id="Ellipse_118" cx="2.5" cy="2.5" r="2.5" class="cls-3" transform="translate(518.099 250.03)"/>
        <path id="Path_205" fill="#fff" d="M580.1 239.532v-1h-34.517a20.36 20.36 0 0 0-2.3-8.922c.344-.531.682-1.059.991-1.573 2.217-3.7 4.431-8.531 2.387-10.574-1.654-1.654-5.527-.687-10.8 2.528a1.968 1.968 0 0 0-2.739.2 20.272 20.272 0 0 0-17.437.646c-3.58-2.324-9.779-5.751-12.153-3.376-2.044 2.043.17 6.878 2.388 10.574.308.514.647 1.042.991 1.573a20.343 20.343 0 0 0-.005 18.829c-3.894 5.973-5.166 10.365-3.374 12.157a3.092 3.092 0 0 0 2.276.809c2.376 0 5.633-1.6 8.3-3.2.513-.308 1.041-.647 1.572-.991a20.339 20.339 0 0 0 18.84 0c.53.344 1.058.683 1.572.991 2.666 1.6 5.923 3.2 8.3 3.2a3.088 3.088 0 0 0 2.275-.809c2.372-2.37-1.042-8.557-3.376-12.151a20.368 20.368 0 0 0 2.294-8.913zm-34.142-21.362c1.2 1.2.254 4.7-2.538 9.353-.215.358-.459.73-.692 1.1a20.594 20.594 0 0 0-6.21-6.559 1.869 1.869 0 0 0-.061-1.259c5.154-3.124 8.406-3.73 9.501-2.635zm-11.358 2.36a1 1 0 1 1-1 1 1 1 0 0 1 1-1zm-1.4 2.423a1.989 1.989 0 0 0 2.836-.035 19.618 19.618 0 0 1 6.1 6.64c-.9 1.351-1.908 2.752-3.012 4.183a15.049 15.049 0 0 0-8.727-8.729c.98-.761 1.903-1.43 2.803-2.059zm-9.811 28.484c.569-.477 1.139-.956 1.713-1.459 1.065.933 2.124 1.83 3.172 2.675a13.943 13.943 0 0 1-3.172.377 12.2 12.2 0 0 1-1.539-.113 3.1 3.1 0 0 0 .039-.387 2.988 2.988 0 0 0-.216-1.093zm-2.789-1.907a2.989 2.989 0 0 0-2.6 1.533 13.88 13.88 0 0 1-6.523-15.206 112.139 112.139 0 0 0 7.967 8.83c1.624 1.625 3.266 3.166 4.9 4.625-.5.434-.991.851-1.485 1.266a2.978 2.978 0 0 0-2.259-1.048zm2 3a2 2 0 1 1-2-2 2 2 0 0 1 2 2zm-10.793-17.868a13.989 13.989 0 0 1 26.586 0 110.081 110.081 0 0 1-8.343 9.318c-1.642 1.641-3.3 3.2-4.95 4.665-1.65-1.469-3.308-3.024-4.95-4.665a109.906 109.906 0 0 1-8.344-9.318zm14.048 14.65c1.636-1.459 3.277-3 4.9-4.625a112.351 112.351 0 0 0 7.967-8.83 13.929 13.929 0 0 1-9.257 16.465q-1.784-1.416-3.611-3.01zm-.755-29.782a19.237 19.237 0 0 1 7.552 1.56 1.993 1.993 0 0 0-.052.44 1.957 1.957 0 0 0 .088.554c-1.1.775-2.242 1.608-3.435 2.543a14.935 14.935 0 0 0-18.172 9.114c-1.1-1.431-2.116-2.832-3.012-4.183A19.508 19.508 0 0 1 525.1 219.53zm-18.321 7.993c-2.792-4.654-3.742-8.151-2.539-9.353 1.3-1.3 5.283-.061 10.458 3.226a20.622 20.622 0 0 0-7.228 7.224c-.234-.367-.477-.739-.692-1.097zM505.6 239.03a19.346 19.346 0 0 1 1.955-8.455c.941 1.392 1.994 2.829 3.144 4.3a14.737 14.737 0 0 0 0 8.311c-1.173 1.5-2.227 2.93-3.149 4.287a19.351 19.351 0 0 1-1.95-8.443zm7.993 18.321c-4.653 2.792-8.149 3.743-9.353 2.538-1.163-1.163-.426-4.743 3.222-10.464a20.612 20.612 0 0 0 7.229 7.234c-.368.233-.741.477-1.099.692zm2.035-1.291a19.62 19.62 0 0 1-7.562-7.565c.859-1.289 1.867-2.685 3.016-4.173a15.032 15.032 0 0 0 6.571 7.678 2.913 2.913 0 0 0-.054.532 2.974 2.974 0 0 0 .566 1.74c-.865.628-1.712 1.241-2.538 1.788zm9.472 2.47a19.339 19.339 0 0 1-8.454-1.956c.731-.494 1.48-1.035 2.235-1.592a2.973 2.973 0 0 0 4.375-1.087 14.189 14.189 0 0 0 1.844.135 14.946 14.946 0 0 0 4.158-.6c1.468 1.15 2.9 2.2 4.3 3.143a19.346 19.346 0 0 1-8.458 1.957zm20.859 1.359c-1.2 1.2-4.7.254-9.352-2.538-.359-.215-.731-.459-1.1-.692a20.633 20.633 0 0 0 7.225-7.228c3.288 5.177 4.528 9.157 3.226 10.458zm-11.389-3.829c-1.351-.9-2.752-1.907-4.183-3.011a14.933 14.933 0 0 0 9.113-18.178c1.15-1.467 2.2-2.9 3.144-4.3a19.414 19.414 0 0 1-8.074 25.485z"/>
    </g>
</svg>
