<svg xmlns="http://www.w3.org/2000/svg" id="portfolio" width="80" height="51" viewBox="0 0 80 51">
    <defs>
        <style>
            .cls-3{fill:#fff}
        </style>
    </defs>
    <path id="Path_199" fill="#f5c37c" d="M525.5 291.988a15 15 0 0 1 0 30z" transform="translate(-500 -281.488)"/>
    <circle id="Ellipse_112" cx="2.5" cy="2.5" r="2.5" fill="#5966fd" transform="translate(41.5 39.5)"/>
    <path id="Path_200" d="M541 306.988a15.507 15.507 0 0 0-15-15.474v-5.026h-.5a20.5 20.5 0 0 0 0 41h.5v-5.025a15.507 15.507 0 0 0 15-15.475zm-15-9.474a9.487 9.487 0 0 1 0 18.949zm-1 18.949a9.487 9.487 0 0 1 0-18.949zm0-19.949a10.486 10.486 0 0 0 0 20.949v9.019a19.5 19.5 0 0 1 0-38.988zm1 24.965v-4.016a10.486 10.486 0 0 0 0-20.949V292.5a14.5 14.5 0 0 1 0 28.982z" class="cls-3" transform="translate(-500 -281.488)"/>
    <path id="Path_201" d="M580 307.488v-1h-29.013a25.541 25.541 0 1 0-8.562 19.543 2.984 2.984 0 0 0 3.916-4.4 25.342 25.342 0 0 0 4.639-14.147zm-36 18a2 2 0 1 1 2-2 2 2 0 0 1-2 2zm1.594-4.531a2.97 2.97 0 0 0-1.594-.469 3 3 0 0 0-3 3 2.971 2.971 0 0 0 .677 1.875 24.67 24.67 0 1 1 3.917-4.406z" class="cls-3" transform="translate(-500 -281.488)"/>
    <path id="Rectangle_288" fill="none" d="M0 0H80V51H0z"/>
</svg>
