<svg xmlns="http://www.w3.org/2000/svg" width="24" height="24" viewBox="0 0 24 24">
    <path fill="#fff" d="M641.332 358.494a3.887 3.887 0 0 1 2.771 1.258 3.777 3.777 0 0 1 1.117 2.621c0 4.71-1.393 8.307-4.136 10.691a13.069 13.069 0 0 1-8.62 2.97 14.853 14.853 0 0 1-4.286-.615c1.583-.229 4.374-1.008 5.467-3.834-2.593.384-4-.531-4.528-1.111.289-.046 1.865-.412 2.063-1.691-2.814-.6-3.773-1.815-4.181-2.685a3.867 3.867 0 0 0 2.867-.571 5.761 5.761 0 0 1-3-3.424 4.2 4.2 0 0 1-.149-1.819 14.858 14.858 0 0 0 9.705 4.308l1.339.057-.326-1.3a3.87 3.87 0 0 1 2.056-4.455 4.805 4.805 0 0 1 1.836-.4m0-1a5.874 5.874 0 0 0-2.216.475 4.826 4.826 0 0 0-2.646 5.624 13.623 13.623 0 0 1-10.125-5.25 5.379 5.379 0 0 0 1.5 6.844h-.008a3.726 3.726 0 0 1-2.242-.843 5.106 5.106 0 0 0 4.029 4.969 3.576 3.576 0 0 1-1.229.218 3.084 3.084 0 0 1-1.066-.173 4.641 4.641 0 0 0 4.394 3.237h.2c-2.1 2.011-5.883 2.161-6.968 2.161h-.3a12.9 12.9 0 0 0 7.807 2.285c6.4 0 13.753-3.687 13.756-14.66a9.184 9.184 0 0 0 2.437-2.625 8.948 8.948 0 0 1-2.859.844 5.062 5.062 0 0 0 2.2-2.766 11.023 11.023 0 0 1-3.187 1.219 4.8 4.8 0 0 0-3.479-1.552z" transform="translate(-624.657 -355.264)"/>
    <path fill="none" d="M0 0H24V24H0z"/>
</svg>
