<svg xmlns="http://www.w3.org/2000/svg" xmlns:xlink="http://www.w3.org/1999/xlink" width="196.557" height="110" viewBox="0 0 196.557 110">
  <defs>
    <style>
      .cls-1 {
        fill: url(#linear-gradient);
      }
    </style>
    <linearGradient id="linear-gradient" x1="1" y1="0.5" x2="-0.07" y2="0.5" gradientUnits="objectBoundingBox">
      <stop offset="0" stop-color="#fff"/>
      <stop offset="1" stop-color="#fff" stop-opacity="0"/>
    </linearGradient>
  </defs>
  <path id="we-are" class="cls-1" d="M3.195-51.644H9.833v13.558H24.085V-51.644h6.638v32.539H24.085V-32.229H9.833v13.124H3.195Zm33.168,0H55.756v5.857H42.35v7.028H54.888V-32.9H42.35v7.939H56.407v5.857H36.363ZM82.308-19.105H61.83V-51.644h6.638v26.682h13.84Zm25.033,0H86.863V-51.644H93.5v26.682h13.84Zm.868-16.269a17.758,17.758,0,0,1,1.258-6.757A16.07,16.07,0,0,1,113-47.5a16.07,16.07,0,0,1,5.369-3.536,17.757,17.757,0,0,1,6.757-1.258,17.758,17.758,0,0,1,6.757,1.258,16.07,16.07,0,0,1,5.369,3.536,16.07,16.07,0,0,1,3.536,5.369,17.758,17.758,0,0,1,1.258,6.757,17.758,17.758,0,0,1-1.258,6.757,16.07,16.07,0,0,1-3.536,5.369,16.07,16.07,0,0,1-5.369,3.536,17.758,17.758,0,0,1-6.757,1.258,17.758,17.758,0,0,1-6.757-1.258A16.07,16.07,0,0,1,113-23.249a16.07,16.07,0,0,1-3.536-5.369A17.758,17.758,0,0,1,108.208-35.375Zm6.725,0a11.942,11.942,0,0,0,1.323,5.683,10.182,10.182,0,0,0,3.623,3.937,9.67,9.67,0,0,0,5.25,1.443,9.67,9.67,0,0,0,5.25-1.443A10.181,10.181,0,0,0,134-29.691a11.942,11.942,0,0,0,1.323-5.683A12.006,12.006,0,0,0,134-41.069a10.081,10.081,0,0,0-3.623-3.937,9.725,9.725,0,0,0-5.25-1.432,9.725,9.725,0,0,0-5.25,1.432,10.081,10.081,0,0,0-3.623,3.937A12.007,12.007,0,0,0,114.933-35.375ZM10.787,18.975,1.459-13.564h6.79L13.694,5.417q.672,2.278,1.193,4.425l6.725-23.406h6.855l6.356,22.17q.2-.759.423-1.551t.466-1.659l5.423-18.959h6.79l-9.35,32.539h-6.79L25.039-4.562,18.271,18.975ZM51.829-13.564H71.223v5.857H57.817V-.679H70.355V5.178H57.817v7.939H71.873v5.857H51.829ZM84.455,18.975l12.69-32.539h7.441l12.69,32.539h-7.093l-2.733-7.289H94.282l-2.733,7.289ZM105.28,5.829q-1.3-3.818-2.321-6.833T100.876-7.23Q99.813-4.02,98.783-1T96.451,5.829ZM120.1-13.564h11.063q5.944,0,9.284,2.7a8.894,8.894,0,0,1,3.341,7.3,9.277,9.277,0,0,1-1.746,5.651,10.106,10.106,0,0,1-4.935,3.5l7.723,13.384h-7.441L130.183,6.5h-3.449V18.975H120.1ZM130.378.991a8.531,8.531,0,0,0,4.978-1.215,3.862,3.862,0,0,0,1.7-3.319,3.807,3.807,0,0,0-1.7-3.3,8.651,8.651,0,0,0-4.978-1.193h-3.644V.991Zm18.135-14.556h19.393v5.857H154.5V-.679h12.538V5.178H154.5v7.939h14.057v5.857H148.513ZM13.347,51.848A5.128,5.128,0,0,0,16.7,50.742a3.4,3.4,0,0,0,1.356-2.733,3.07,3.07,0,0,0-.879-2.213,8.553,8.553,0,0,0-2.31-1.638q-1.432-.727-3.1-1.421-1.649-.694-3.308-1.508a16.584,16.584,0,0,1-3.048-1.92,8.639,8.639,0,0,1-2.234-2.668,7.776,7.776,0,0,1-.846-3.753,8.28,8.28,0,0,1,1.367-4.74,9,9,0,0,1,3.84-3.156,13.729,13.729,0,0,1,5.749-1.128,20.72,20.72,0,0,1,10.022,2.6L20.57,32.021a14.054,14.054,0,0,0-7.267-2.3,5.286,5.286,0,0,0-3.091.813,2.516,2.516,0,0,0-1.161,2.158,2.693,2.693,0,0,0,.824,1.974,7.868,7.868,0,0,0,2.18,1.475q1.356.651,2.961,1.323,1.67.694,3.384,1.518a16.878,16.878,0,0,1,3.167,1.974A8.892,8.892,0,0,1,23.9,43.735a8.16,8.16,0,0,1,.879,3.926,9.213,9.213,0,0,1-1.5,5.2,10.223,10.223,0,0,1-4.122,3.558,13.5,13.5,0,0,1-6.031,1.291,18.875,18.875,0,0,1-6.313-1.117,20.482,20.482,0,0,1-5.792-3.156l3.124-5.293a14.862,14.862,0,0,0,2.8,1.909,16.442,16.442,0,0,0,3.265,1.323A11.519,11.519,0,0,0,13.347,51.848Zm43.515,1.063A16.42,16.42,0,0,1,51.5,56.425a17.574,17.574,0,0,1-6.768,1.28,17.757,17.757,0,0,1-6.757-1.258,15.943,15.943,0,0,1-8.9-8.9,18.775,18.775,0,0,1,0-13.514,15.943,15.943,0,0,1,8.9-8.9,18.729,18.729,0,0,1,13.525.011,16.108,16.108,0,0,1,5.358,3.525l-4.534,4.534a9.675,9.675,0,0,0-3.319-2.549,9.88,9.88,0,0,0-4.273-.922,9.725,9.725,0,0,0-5.25,1.432,10.081,10.081,0,0,0-3.623,3.937,12.007,12.007,0,0,0-1.323,5.694,11.942,11.942,0,0,0,1.323,5.683,10.181,10.181,0,0,0,3.623,3.937,9.67,9.67,0,0,0,5.25,1.443,9.88,9.88,0,0,0,4.273-.922,9.675,9.675,0,0,0,3.319-2.549Zm2.6-12.126a17.757,17.757,0,0,1,1.258-6.757,15.943,15.943,0,0,1,8.9-8.9,18.775,18.775,0,0,1,13.514,0,15.943,15.943,0,0,1,8.9,8.9,18.774,18.774,0,0,1,0,13.514,15.943,15.943,0,0,1-8.9,8.9,18.775,18.775,0,0,1-13.514,0,15.943,15.943,0,0,1-8.9-8.9A17.757,17.757,0,0,1,59.465,40.785Zm6.725,0a11.942,11.942,0,0,0,1.323,5.683,10.181,10.181,0,0,0,3.623,3.937,10.273,10.273,0,0,0,10.5,0,10.181,10.181,0,0,0,3.623-3.937,11.942,11.942,0,0,0,1.323-5.683,12.007,12.007,0,0,0-1.323-5.694,10.081,10.081,0,0,0-3.623-3.937,10.34,10.34,0,0,0-10.5,0,10.081,10.081,0,0,0-3.623,3.937A12.007,12.007,0,0,0,66.19,40.785ZM97.21,24.515h11.063q5.944,0,9.284,2.7a8.894,8.894,0,0,1,3.341,7.3,9.278,9.278,0,0,1-1.746,5.651,10.106,10.106,0,0,1-4.935,3.5l7.723,13.384H114.5l-7.2-12.473h-3.449V57.054H97.21Zm10.282,14.556a8.531,8.531,0,0,0,4.978-1.215,3.862,3.862,0,0,0,1.7-3.319,3.807,3.807,0,0,0-1.7-3.3,8.651,8.651,0,0,0-4.978-1.193h-3.644v9.024Zm18.135,17.983V24.515h11.237q6.052,0,9.458,2.874a9.671,9.671,0,0,1,3.406,7.8,10.319,10.319,0,0,1-1.54,5.683,10.091,10.091,0,0,1-4.414,3.731,16.427,16.427,0,0,1-6.909,1.323h-4.621V57.054Zm10.564-27.007h-3.948V40.416h3.948a7.646,7.646,0,0,0,5.076-1.475A4.687,4.687,0,0,0,143,35.21a4.625,4.625,0,0,0-1.735-3.709A7.726,7.726,0,0,0,136.192,30.047Zm23.645-5.532V57.054H153.2V24.515Zm3.9,16.269A17.758,17.758,0,0,1,165,34.028a15.943,15.943,0,0,1,8.9-8.9,18.775,18.775,0,0,1,13.514,0,15.943,15.943,0,0,1,8.9,8.9,18.775,18.775,0,0,1,0,13.514,15.943,15.943,0,0,1-8.9,8.9,18.775,18.775,0,0,1-13.514,0,15.943,15.943,0,0,1-8.9-8.9A17.758,17.758,0,0,1,163.741,40.785Zm6.725,0a11.942,11.942,0,0,0,1.323,5.683,10.182,10.182,0,0,0,3.623,3.937,10.273,10.273,0,0,0,10.5,0,10.182,10.182,0,0,0,3.623-3.937,11.942,11.942,0,0,0,1.323-5.683,12.006,12.006,0,0,0-1.323-5.694,10.081,10.081,0,0,0-3.623-3.937,10.34,10.34,0,0,0-10.5,0,10.081,10.081,0,0,0-3.623,3.937A12.007,12.007,0,0,0,170.466,40.785Z" transform="translate(-1.025 52.295)"/>
</svg>
