<svg xmlns="http://www.w3.org/2000/svg" xmlns:xlink="http://www.w3.org/1999/xlink" width="202.515" height="58.852" viewBox="0 0 202.515 58.852">
  <defs>
    <style>
      .cls-1 {
        fill: url(#linear-gradient);
      }
    </style>
    <linearGradient id="linear-gradient" x1="1.217" y1="0.244" x2="0" y2="0.322" gradientUnits="objectBoundingBox">
      <stop offset="0" stop-color="#fff"/>
      <stop offset="1" stop-color="#f274cc" stop-opacity="0.302"/>
    </linearGradient>
  </defs>
  <path id="advertising" class="cls-1" d="M0,0,8.569-21.973h5.024L22.163,0h-4.79L15.527-4.922H6.636L4.79,0ZM14.063-8.877q-.879-2.578-1.567-4.614t-1.406-4.2q-.718,2.168-1.414,4.2T8.1-8.877ZM30.981.029H24.067V-21.943h6.914q6.475,0,9.946,2.864A9.9,9.9,0,0,1,44.4-10.986a9.984,9.984,0,0,1-3.472,8.13Q37.456.029,30.981.029Zm.1-3.955q4.248,0,6.511-1.853a6.353,6.353,0,0,0,2.263-5.208A6.273,6.273,0,0,0,37.6-16.157q-2.263-1.831-6.511-1.831H28.55V-3.926ZM44.971-21.973h4.761q.864,2.109,1.6,3.831t1.421,3.333q.681,1.611,1.384,3.347t1.465,3.875q.205.586.381,1.121t.322,1.047q.146-.513.322-1.047t.381-1.121q.776-2.139,1.472-3.875t1.377-3.347q.681-1.611,1.428-3.333t1.6-3.831h4.761L58.667,0H53.95Zm25.02,0h13.1v3.955H74.033v4.746H82.5v3.955H74.033v5.361h9.492V0H69.99Zm17.2,0h7.471a9.715,9.715,0,0,1,6.27,1.824,6.006,6.006,0,0,1,2.256,4.929A6.265,6.265,0,0,1,102-11.4a6.825,6.825,0,0,1-3.333,2.366L103.887,0H98.862L94-8.423H91.67V0H87.188Zm6.943,9.829a5.761,5.761,0,0,0,3.362-.82,2.608,2.608,0,0,0,1.15-2.241,2.571,2.571,0,0,0-1.15-2.227,5.842,5.842,0,0,0-3.362-.806H91.67v6.094Zm10.034-5.874v-3.955h17.051v3.955h-6.284V0h-4.482V-18.018Zm23.584-3.955V0h-4.482V-21.973ZM138.413-3.516a3.463,3.463,0,0,0,2.263-.747,2.3,2.3,0,0,0,.916-1.846A2.073,2.073,0,0,0,141-7.6a5.776,5.776,0,0,0-1.56-1.106q-.967-.491-2.095-.959t-2.234-1.018a11.2,11.2,0,0,1-2.058-1.3,5.834,5.834,0,0,1-1.509-1.8,5.251,5.251,0,0,1-.571-2.534,5.591,5.591,0,0,1,.923-3.2,6.08,6.08,0,0,1,2.593-2.131,9.271,9.271,0,0,1,3.882-.762,13.992,13.992,0,0,1,6.768,1.758l-1.846,3.75a9.411,9.411,0,0,0-2.739-1.23,9.369,9.369,0,0,0-2.168-.322,3.57,3.57,0,0,0-2.087.549,1.7,1.7,0,0,0-.784,1.458,1.819,1.819,0,0,0,.557,1.333,5.313,5.313,0,0,0,1.472,1q.916.439,2,.894,1.128.469,2.285,1.025a11.4,11.4,0,0,1,2.139,1.333,6,6,0,0,1,1.575,1.875,5.51,5.51,0,0,1,.593,2.651,6.222,6.222,0,0,1-1.011,3.508,6.9,6.9,0,0,1-2.783,2.4,9.114,9.114,0,0,1-4.072.872A12.746,12.746,0,0,1,134-.315a13.832,13.832,0,0,1-3.911-2.131L132.2-6.021a10.036,10.036,0,0,0,1.89,1.289,11.1,11.1,0,0,0,2.2.894A7.778,7.778,0,0,0,138.413-3.516Zm15.425-18.457V0h-4.482V-21.973Zm3.809,0H162.1L173.379-7.207V-21.973h4.482V0h-4.526L162.041-14.795V0h-4.395Zm34.277-.439a12.146,12.146,0,0,1,4.512.835,10.717,10.717,0,0,1,3.677,2.4l-3.354,2.93a5.968,5.968,0,0,0-2.161-1.633,6.847,6.847,0,0,0-2.849-.579,6.6,6.6,0,0,0-3.523.93,6.241,6.241,0,0,0-2.351,2.615,8.736,8.736,0,0,0-.835,3.926,8.69,8.69,0,0,0,.835,3.918,6.3,6.3,0,0,0,2.351,2.615,6.561,6.561,0,0,0,3.523.938A6.4,6.4,0,0,0,195.916-4.9a6.75,6.75,0,0,0,2.292-3.728h-6.489v-3.955h10.576l.117.806q.044.4.073.806t.029.864a10.981,10.981,0,0,1-.791,4.211,9.944,9.944,0,0,1-2.234,3.347,10.185,10.185,0,0,1-3.4,2.2,11.416,11.416,0,0,1-4.285.784,11.62,11.62,0,0,1-4.5-.857,10.92,10.92,0,0,1-3.6-2.4,10.814,10.814,0,0,1-2.373-3.625,12.043,12.043,0,0,1-.842-4.548,11.991,11.991,0,0,1,.85-4.563,10.851,10.851,0,0,1,2.388-3.625,10.851,10.851,0,0,1,3.625-2.388A11.991,11.991,0,0,1,191.924-22.412ZM20.347,33.2a11.088,11.088,0,0,1-3.618,2.373,11.867,11.867,0,0,1-4.57.864A11.991,11.991,0,0,1,7.6,35.59a10.766,10.766,0,0,1-6.013-6.013,11.991,11.991,0,0,1-.85-4.563,11.991,11.991,0,0,1,.85-4.563A10.766,10.766,0,0,1,7.6,14.438a11.991,11.991,0,0,1,4.563-.85,11.956,11.956,0,0,1,4.57.857,10.877,10.877,0,0,1,3.618,2.38l-3.062,3.062a6.533,6.533,0,0,0-2.241-1.721,6.672,6.672,0,0,0-2.886-.623,6.567,6.567,0,0,0-3.545.967,6.808,6.808,0,0,0-2.446,2.659,8.108,8.108,0,0,0-.894,3.845,8.064,8.064,0,0,0,.894,3.838A6.875,6.875,0,0,0,8.613,31.51a6.53,6.53,0,0,0,3.545.974,6.672,6.672,0,0,0,2.886-.623,6.533,6.533,0,0,0,2.241-1.721ZM21.372,36l8.569-21.973h5.024L43.535,36h-4.79L36.9,31.078H28.008L26.162,36Zm14.063-8.877q-.879-2.578-1.567-4.614t-1.406-4.2q-.718,2.168-1.414,4.2t-1.575,4.614Zm10,8.877V14.027h5.83L56.1,24.384q.337.85.667,1.707t.637,1.721q.308-.894.652-1.772t.71-1.655l4.819-10.356H69.3V36H64.819q0-4.014.073-7.837T65.2,20.5q-.381,1.011-.8,2.007t-.872,1.963l-3.706,7.939H54.9L51.211,24.5q-.454-1.113-.879-2.19T49.5,20.15q.161,2.549.256,4.929t.132,5q.037,2.622.037,5.918ZM73.11,36V14.027H80.7a9.606,9.606,0,0,1,6.387,1.941,6.531,6.531,0,0,1,2.3,5.266,6.968,6.968,0,0,1-1.04,3.838,6.814,6.814,0,0,1-2.981,2.52,11.092,11.092,0,0,1-4.666.894h-3.12V36Zm7.134-18.237H77.578v7h2.666a5.163,5.163,0,0,0,3.428-1,3.165,3.165,0,0,0,1.172-2.52,3.123,3.123,0,0,0-1.172-2.5A5.217,5.217,0,0,0,80.244,17.763ZM88.052,36l8.569-21.973h5.024L110.215,36h-4.79l-1.846-4.922H94.688L92.842,36Zm14.063-8.877q-.879-2.578-1.567-4.614t-1.406-4.2q-.718,2.168-1.414,4.2t-1.575,4.614Zm14.487-13.1V36h-4.482V14.027Zm14.063-.439a12.146,12.146,0,0,1,4.512.835,10.717,10.717,0,0,1,3.677,2.4l-3.354,2.93a5.968,5.968,0,0,0-2.161-1.633,6.847,6.847,0,0,0-2.849-.579,6.6,6.6,0,0,0-3.523.93,6.241,6.241,0,0,0-2.351,2.615,8.736,8.736,0,0,0-.835,3.926,8.69,8.69,0,0,0,.835,3.918,6.3,6.3,0,0,0,2.351,2.615,6.561,6.561,0,0,0,3.523.938,6.4,6.4,0,0,0,4.167-1.384,6.75,6.75,0,0,0,2.292-3.728h-6.489V23.417h10.576l.117.806q.044.4.073.806t.029.864a10.981,10.981,0,0,1-.791,4.211,9.944,9.944,0,0,1-2.234,3.347,10.185,10.185,0,0,1-3.4,2.2,11.416,11.416,0,0,1-4.285.784,11.62,11.62,0,0,1-4.5-.857,10.791,10.791,0,0,1-5.969-6.021,12.69,12.69,0,0,1,.007-9.111,10.766,10.766,0,0,1,6.013-6.013A11.991,11.991,0,0,1,130.664,13.588Zm13.228.439h4.453l11.279,14.766V14.027h4.482V36H159.58L148.286,21.205V36h-4.395Zm30.879,18.457a3.463,3.463,0,0,0,2.263-.747,2.3,2.3,0,0,0,.916-1.846,2.073,2.073,0,0,0-.593-1.494,5.776,5.776,0,0,0-1.56-1.106q-.967-.491-2.095-.959t-2.234-1.018a11.2,11.2,0,0,1-2.058-1.3,5.834,5.834,0,0,1-1.509-1.8,5.251,5.251,0,0,1-.571-2.534,5.591,5.591,0,0,1,.923-3.2,6.08,6.08,0,0,1,2.593-2.131,9.271,9.271,0,0,1,3.882-.762,13.992,13.992,0,0,1,6.768,1.758l-1.846,3.75a9.49,9.49,0,0,0-4.907-1.553,3.57,3.57,0,0,0-2.087.549,1.7,1.7,0,0,0-.784,1.458,1.819,1.819,0,0,0,.557,1.333,5.313,5.313,0,0,0,1.472,1q.916.439,2,.894,1.128.469,2.285,1.025a11.4,11.4,0,0,1,2.139,1.333,6,6,0,0,1,1.575,1.875,5.51,5.51,0,0,1,.593,2.651,6.222,6.222,0,0,1-1.011,3.508,6.9,6.9,0,0,1-2.783,2.4,9.114,9.114,0,0,1-4.072.872,12.746,12.746,0,0,1-4.263-.754,13.832,13.832,0,0,1-3.911-2.131l2.109-3.574a10.036,10.036,0,0,0,1.89,1.289,11.1,11.1,0,0,0,2.2.894A7.778,7.778,0,0,0,174.771,32.484Z" transform="translate(0 22.412)"/>
</svg>
