<svg xmlns="http://www.w3.org/2000/svg" xmlns:xlink="http://www.w3.org/1999/xlink" width="652.65" height="38" viewBox="0 0 652.65 38">
  <defs>
    <style>
      .cls-1 {
        fill: url(#linear-gradient);
      }
    </style>
    <linearGradient id="linear-gradient" x1="1.122" y1="0.5" x2="-0.016" y2="0.5" gradientUnits="objectBoundingBox">
      <stop offset="0" stop-color="#fff"/>
      <stop offset="1" stop-color="#f274cc" stop-opacity="0.302"/>
    </linearGradient>
  </defs>
  <path id="advertising" class="cls-1" d="M0-.084,14.25-36.623h8.355L36.855-.084H28.89L25.821-8.269H11.035L7.965-.084ZM23.385-14.846q-1.462-4.287-2.606-7.673T18.44-29.51q-1.194,3.605-2.351,6.991t-2.619,7.673ZM51.519-.036h-11.5V-36.574h11.5q10.767,0,16.54,4.762t5.773,13.458q0,8.721-5.773,13.519T51.519-.036Zm.171-6.577q7.064,0,10.828-3.081a10.565,10.565,0,0,0,3.763-8.66,10.432,10.432,0,0,0-3.763-8.6Q58.754-30,51.69-30H47.476V-6.612Zm23.092-30.01H82.7q1.437,3.508,2.667,6.37t2.363,5.542q1.133,2.679,2.3,5.566T92.467-12.7q.341.974.633,1.863T93.636-9.1q.244-.853.536-1.742t.633-1.863q1.291-3.556,2.448-6.443t2.29-5.566q1.133-2.679,2.375-5.542t2.655-6.37h7.917L97.558-.084H89.714Zm41.605,0h21.777v6.577H123.11v7.892H137.19v6.577H123.11v8.915h15.785V-.084H116.387Zm28.6,0h12.423q6.674,0,10.426,3.033a9.987,9.987,0,0,1,3.751,8.2,10.418,10.418,0,0,1-1.961,6.346,11.349,11.349,0,0,1-5.542,3.934L172.754-.084H164.4l-8.087-14.006h-3.873V-.084h-7.454Zm11.546,16.345a9.58,9.58,0,0,0,5.59-1.364,4.337,4.337,0,0,0,1.912-3.727,4.275,4.275,0,0,0-1.912-3.7,9.715,9.715,0,0,0-5.59-1.34h-4.092v10.133Zm16.686-9.768v-6.577h28.354v6.577h-10.45V-.084h-7.454V-30.046Zm39.218-6.577V-.084h-7.454V-36.623ZM230.168-5.93a5.758,5.758,0,0,0,3.763-1.242,3.816,3.816,0,0,0,1.522-3.069,3.447,3.447,0,0,0-.987-2.485,9.6,9.6,0,0,0-2.594-1.839q-1.608-.816-3.483-1.6-1.851-.779-3.715-1.693a18.622,18.622,0,0,1-3.422-2.156,9.7,9.7,0,0,1-2.509-3,8.732,8.732,0,0,1-.95-4.214,9.3,9.3,0,0,1,1.535-5.322,10.111,10.111,0,0,1,4.312-3.544,15.416,15.416,0,0,1,6.455-1.267,23.267,23.267,0,0,1,11.254,2.923l-3.069,6.236a15.649,15.649,0,0,0-4.555-2.046,15.58,15.58,0,0,0-3.605-.536,5.936,5.936,0,0,0-3.471.913,2.825,2.825,0,0,0-1.3,2.424,3.024,3.024,0,0,0,.926,2.217,8.835,8.835,0,0,0,2.448,1.656q1.522.731,3.325,1.486,1.876.779,3.8,1.705a18.953,18.953,0,0,1,3.556,2.217,9.986,9.986,0,0,1,2.619,3.118,9.163,9.163,0,0,1,.987,4.409A10.346,10.346,0,0,1,241.324-4.8,11.479,11.479,0,0,1,236.7-.8,15.156,15.156,0,0,1,229.924.646a21.2,21.2,0,0,1-7.088-1.254,23,23,0,0,1-6.5-3.544L219.84-10.1a16.689,16.689,0,0,0,3.142,2.144,18.463,18.463,0,0,0,3.666,1.486A12.935,12.935,0,0,0,230.168-5.93Zm25.65-30.692V-.084h-7.454V-36.623Zm6.333,0h7.405l18.756,24.554V-36.623h7.454V-.084H288.24l-18.781-24.6v24.6h-7.308Zm57-.731a20.2,20.2,0,0,1,7.5,1.388,17.821,17.821,0,0,1,6.114,3.995L327.19-27.1a9.924,9.924,0,0,0-3.593-2.716,11.385,11.385,0,0,0-4.738-.962A10.975,10.975,0,0,0,313-29.23a10.377,10.377,0,0,0-3.91,4.348,14.527,14.527,0,0,0-1.388,6.528,14.45,14.45,0,0,0,1.388,6.516A10.475,10.475,0,0,0,313-7.489a10.91,10.91,0,0,0,5.858,1.559,10.647,10.647,0,0,0,6.93-2.3,11.225,11.225,0,0,0,3.812-6.2H318.81v-6.577H336.4l.195,1.34q.073.658.122,1.34t.049,1.437a18.261,18.261,0,0,1-1.315,7,16.535,16.535,0,0,1-3.715,5.566,16.937,16.937,0,0,1-5.651,3.666,18.984,18.984,0,0,1-7.125,1.3,19.322,19.322,0,0,1-7.478-1.425,18.158,18.158,0,0,1-5.98-3.983,17.983,17.983,0,0,1-3.946-6.029,20.026,20.026,0,0,1-1.4-7.563,19.94,19.94,0,0,1,1.413-7.588,18.045,18.045,0,0,1,3.97-6.029,18.045,18.045,0,0,1,6.029-3.971A19.94,19.94,0,0,1,319.151-37.354ZM383.021-4.737A18.438,18.438,0,0,1,377-.791,19.734,19.734,0,0,1,369.4.646a19.94,19.94,0,0,1-7.588-1.413,18.045,18.045,0,0,1-6.029-3.971,18.045,18.045,0,0,1-3.97-6.029,19.941,19.941,0,0,1-1.413-7.588,19.941,19.941,0,0,1,1.413-7.588,18.045,18.045,0,0,1,3.97-6.029,18.045,18.045,0,0,1,6.029-3.971,19.94,19.94,0,0,1,7.588-1.413,19.882,19.882,0,0,1,7.6,1.425,18.088,18.088,0,0,1,6.017,3.958l-5.091,5.091a10.864,10.864,0,0,0-3.727-2.862,11.1,11.1,0,0,0-4.8-1.035,10.92,10.92,0,0,0-5.895,1.608,11.321,11.321,0,0,0-4.068,4.421,13.482,13.482,0,0,0-1.486,6.394,13.41,13.41,0,0,0,1.486,6.382,11.433,11.433,0,0,0,4.068,4.421A10.858,10.858,0,0,0,369.4-5.93a11.1,11.1,0,0,0,4.8-1.035,10.864,10.864,0,0,0,3.727-2.862Zm1.705,4.653,14.25-36.538h8.355L421.581-.084h-7.965l-3.069-8.185H395.76L392.691-.084ZM408.11-14.846q-1.462-4.287-2.606-7.673t-2.338-6.991q-1.194,3.605-2.351,6.991T398.2-14.846ZM424.747-.084V-36.623h9.695L442.481-19.4q.56,1.413,1.108,2.838t1.06,2.862q.512-1.486,1.084-2.947t1.181-2.753l8.014-17.222h9.5V-.084h-7.454q0-6.674.122-13.032t.512-12.74q-.633,1.681-1.328,3.337t-1.449,3.264l-6.163,13.2h-8.185l-6.138-13.154q-.755-1.851-1.462-3.642t-1.388-3.593q.268,4.238.426,8.2t.219,8.319q.061,4.36.061,9.841Zm46.014,0V-36.623h12.618q6.8,0,10.621,3.228a10.86,10.86,0,0,1,3.824,8.757,11.587,11.587,0,0,1-1.729,6.382,11.331,11.331,0,0,1-4.957,4.19,18.446,18.446,0,0,1-7.758,1.486h-5.188v12.5Zm11.863-30.327h-4.433v11.644h4.433a8.586,8.586,0,0,0,5.7-1.656,5.263,5.263,0,0,0,1.949-4.19,5.193,5.193,0,0,0-1.949-4.165A8.675,8.675,0,0,0,482.624-30.411ZM495.608-.084l14.25-36.538h8.355L532.463-.084H524.5l-3.069-8.185H506.642L503.573-.084Zm23.385-14.762q-1.462-4.287-2.606-7.673t-2.339-6.991q-1.194,3.605-2.351,6.991t-2.619,7.673Zm24.091-21.777V-.084H535.63V-36.623Zm23.385-.731a20.2,20.2,0,0,1,7.5,1.388,17.821,17.821,0,0,1,6.114,3.995L574.506-27.1a9.924,9.924,0,0,0-3.593-2.716,11.385,11.385,0,0,0-4.738-.962,10.975,10.975,0,0,0-5.858,1.547,10.377,10.377,0,0,0-3.91,4.348,14.527,14.527,0,0,0-1.388,6.528,14.45,14.45,0,0,0,1.388,6.516,10.475,10.475,0,0,0,3.91,4.348,10.91,10.91,0,0,0,5.858,1.559,10.647,10.647,0,0,0,6.93-2.3,11.225,11.225,0,0,0,3.812-6.2H566.127v-6.577h17.587l.195,1.34q.073.658.122,1.34t.049,1.437a18.26,18.26,0,0,1-1.315,7,16.534,16.534,0,0,1-3.715,5.566A16.937,16.937,0,0,1,573.4-.657a18.983,18.983,0,0,1-7.125,1.3,19.322,19.322,0,0,1-7.478-1.425,18.158,18.158,0,0,1-5.98-3.983,17.983,17.983,0,0,1-3.946-6.029,20.027,20.027,0,0,1-1.4-7.563,19.94,19.94,0,0,1,1.413-7.588,18.045,18.045,0,0,1,3.971-6.029,18.045,18.045,0,0,1,6.029-3.971A19.94,19.94,0,0,1,566.468-37.354Zm22,.731h7.405l18.756,24.554V-36.623h7.454V-.084h-7.527l-18.781-24.6v24.6h-7.308ZM639.813-5.93a5.758,5.758,0,0,0,3.763-1.242,3.816,3.816,0,0,0,1.522-3.069,3.447,3.447,0,0,0-.987-2.485,9.6,9.6,0,0,0-2.594-1.839q-1.608-.816-3.483-1.6-1.851-.779-3.715-1.693A18.622,18.622,0,0,1,630.9-20.01a9.7,9.7,0,0,1-2.509-3,8.732,8.732,0,0,1-.95-4.214,9.3,9.3,0,0,1,1.535-5.322,10.11,10.11,0,0,1,4.312-3.544,15.416,15.416,0,0,1,6.455-1.267,23.267,23.267,0,0,1,11.254,2.923l-3.069,6.236a15.65,15.65,0,0,0-4.555-2.046,15.581,15.581,0,0,0-3.605-.536,5.936,5.936,0,0,0-3.471.913,2.825,2.825,0,0,0-1.3,2.424,3.024,3.024,0,0,0,.926,2.217,8.835,8.835,0,0,0,2.448,1.656q1.523.731,3.325,1.486,1.876.779,3.8,1.705a18.95,18.95,0,0,1,3.556,2.217,9.984,9.984,0,0,1,2.619,3.118,9.163,9.163,0,0,1,.987,4.409A10.346,10.346,0,0,1,650.969-4.8,11.479,11.479,0,0,1,646.341-.8,15.156,15.156,0,0,1,639.569.646a21.2,21.2,0,0,1-7.088-1.254,23,23,0,0,1-6.5-3.544l3.508-5.944a16.688,16.688,0,0,0,3.142,2.144,18.462,18.462,0,0,0,3.666,1.486A12.935,12.935,0,0,0,639.813-5.93Z" transform="translate(0 37.354)"/>
</svg>
