<svg xmlns="http://www.w3.org/2000/svg" xmlns:xlink="http://www.w3.org/1999/xlink" width="267.438" height="38" viewBox="0 0 267.438 38">
  <defs>
    <style>
      .cls-1 {
        fill: url(#linear-gradient);
      }
    </style>
    <linearGradient id="linear-gradient" x1="1.172" y1="10.69" x2="0" y2="10.668" gradientUnits="objectBoundingBox">
      <stop offset="0" stop-color="#fff"/>
      <stop offset="1" stop-color="#5966fd" stop-opacity="0.302"/>
    </linearGradient>
  </defs>
  <path id="branding" class="cls-1" d="M3.174-.084V-36.623H16.523q5.871,0,9.122,2.375A8.02,8.02,0,0,1,28.9-27.342a8.593,8.593,0,0,1-1.364,4.921,8.744,8.744,0,0,1-3.9,3.118,10.018,10.018,0,0,1,4.945,3.4,9.239,9.239,0,0,1,1.729,5.712A8.771,8.771,0,0,1,26.8-2.679Q23.294-.084,16.985-.084ZM16.23-30.046h-5.6v8.038h5.6a6.053,6.053,0,0,0,3.776-1.035,3.545,3.545,0,0,0,1.34-2.984,3.545,3.545,0,0,0-1.34-2.984A6.053,6.053,0,0,0,16.23-30.046Zm-5.6,23.385h6.09a7.118,7.118,0,0,0,4.458-1.23,4.22,4.22,0,0,0,1.583-3.544,4.153,4.153,0,0,0-1.583-3.52,7.223,7.223,0,0,0-4.458-1.206h-6.09ZM35.3-36.623H47.726q6.674,0,10.426,3.033a9.987,9.987,0,0,1,3.751,8.2,10.418,10.418,0,0,1-1.961,6.346A11.349,11.349,0,0,1,54.4-15.114L63.073-.084H54.717L46.63-14.091H42.757V-.084H35.3ZM46.849-20.278a9.58,9.58,0,0,0,5.59-1.364,4.337,4.337,0,0,0,1.912-3.727,4.275,4.275,0,0,0-1.912-3.7,9.715,9.715,0,0,0-5.59-1.34H42.757v10.133ZM64.047-.084,78.3-36.623h8.355L100.9-.084H92.937L89.867-8.269H75.082L72.012-.084ZM87.432-14.846q-1.462-4.287-2.606-7.673T82.487-29.51q-1.194,3.605-2.351,6.991t-2.619,7.673Zm16.637-21.777h7.405L130.23-12.069V-36.623h7.454V-.084h-7.527l-18.781-24.6v24.6h-7.308ZM155.515-.036h-11.5V-36.574h11.5q10.767,0,16.54,4.762t5.773,13.458q0,8.721-5.773,13.519T155.515-.036Zm.171-6.577q7.064,0,10.828-3.081a10.565,10.565,0,0,0,3.763-8.66,10.432,10.432,0,0,0-3.763-8.6Q162.749-30,155.685-30h-4.214V-6.612Zm33.981-30.01V-.084h-7.454V-36.623Zm6.333,0H203.4l18.756,24.554V-36.623h7.454V-.084h-7.527l-18.781-24.6v24.6H196Zm57-.731a20.2,20.2,0,0,1,7.5,1.388,17.821,17.821,0,0,1,6.114,3.995L261.038-27.1a9.924,9.924,0,0,0-3.593-2.716,11.385,11.385,0,0,0-4.738-.962,10.975,10.975,0,0,0-5.858,1.547,10.377,10.377,0,0,0-3.91,4.348,14.527,14.527,0,0,0-1.388,6.528,14.45,14.45,0,0,0,1.388,6.516,10.475,10.475,0,0,0,3.91,4.348,10.91,10.91,0,0,0,5.858,1.559,10.647,10.647,0,0,0,6.93-2.3,11.225,11.225,0,0,0,3.812-6.2H252.658v-6.577h17.587l.195,1.34q.073.658.122,1.34t.049,1.437a18.261,18.261,0,0,1-1.315,7,16.536,16.536,0,0,1-3.715,5.566A16.937,16.937,0,0,1,259.93-.657,18.984,18.984,0,0,1,252.8.646a19.322,19.322,0,0,1-7.478-1.425,18.158,18.158,0,0,1-5.98-3.983A17.983,17.983,0,0,1,235.4-10.79a20.026,20.026,0,0,1-1.4-7.563,19.94,19.94,0,0,1,1.413-7.588,18.045,18.045,0,0,1,3.971-6.029,18.045,18.045,0,0,1,6.029-3.971A19.94,19.94,0,0,1,253-37.354Z" transform="translate(-3.174 37.354)"/>
</svg>
