<svg xmlns="http://www.w3.org/2000/svg" xmlns:xlink="http://www.w3.org/1999/xlink" width="304.072" height="62.646" viewBox="0 0 304.072 62.646">
  <defs>
    <style>
      .cls-1 {
        fill: url(#linear-gradient);
      }
    </style>
    <linearGradient id="linear-gradient" x1="1.065" x2="0.037" gradientUnits="objectBoundingBox">
      <stop offset="0" stop-color="#fff"/>
      <stop offset="1" stop-color="#5966fd" stop-opacity="0.302"/>
    </linearGradient>
  </defs>
  <path id="seo" class="cls-1" d="M8.76-3.516a3.463,3.463,0,0,0,2.263-.747,2.3,2.3,0,0,0,.916-1.846A2.073,2.073,0,0,0,11.345-7.6a5.776,5.776,0,0,0-1.56-1.106Q8.818-9.2,7.69-9.668T5.457-10.686a11.2,11.2,0,0,1-2.058-1.3,5.834,5.834,0,0,1-1.509-1.8,5.251,5.251,0,0,1-.571-2.534,5.591,5.591,0,0,1,.923-3.2A6.08,6.08,0,0,1,4.834-21.65a9.271,9.271,0,0,1,3.882-.762,13.992,13.992,0,0,1,6.768,1.758L13.638-16.9a9.411,9.411,0,0,0-2.739-1.23,9.369,9.369,0,0,0-2.168-.322,3.57,3.57,0,0,0-2.087.549,1.7,1.7,0,0,0-.784,1.458,1.819,1.819,0,0,0,.557,1.333,5.313,5.313,0,0,0,1.472,1q.916.439,2,.894,1.128.469,2.285,1.025a11.4,11.4,0,0,1,2.139,1.333,6,6,0,0,1,1.575,1.875,5.51,5.51,0,0,1,.593,2.651,6.222,6.222,0,0,1-1.011,3.508,6.9,6.9,0,0,1-2.783,2.4A9.114,9.114,0,0,1,8.613.439,12.746,12.746,0,0,1,4.351-.315,13.832,13.832,0,0,1,.439-2.446L2.549-6.021a10.036,10.036,0,0,0,1.89,1.289,11.1,11.1,0,0,0,2.2.894A7.778,7.778,0,0,0,8.76-3.516ZM19.7-21.973H32.8v3.955H23.745v4.746h8.467v3.955H23.745v5.361h9.492V0H19.7ZM35,0l8.569-21.973h5.024L57.158,0h-4.79L50.522-4.922H41.631L39.785,0ZM49.058-8.877q-.879-2.578-1.567-4.614t-1.406-4.2q-.718,2.168-1.414,4.2T43.1-8.877Zm10-13.1h7.471a9.715,9.715,0,0,1,6.27,1.824,6.006,6.006,0,0,1,2.256,4.929A6.265,6.265,0,0,1,73.879-11.4a6.825,6.825,0,0,1-3.333,2.366L75.762,0H70.737L65.874-8.423H63.545V0H59.063Zm6.943,9.829a5.761,5.761,0,0,0,3.362-.82,2.608,2.608,0,0,0,1.15-2.241,2.571,2.571,0,0,0-1.15-2.227,5.842,5.842,0,0,0-3.362-.806H63.545v6.094ZM96.694-2.8A11.088,11.088,0,0,1,93.076-.425a11.867,11.867,0,0,1-4.57.864,11.991,11.991,0,0,1-4.563-.85A10.851,10.851,0,0,1,80.317-2.8,10.851,10.851,0,0,1,77.93-6.423a11.991,11.991,0,0,1-.85-4.563,11.991,11.991,0,0,1,.85-4.563,10.851,10.851,0,0,1,2.388-3.625,10.851,10.851,0,0,1,3.625-2.388,11.991,11.991,0,0,1,4.563-.85,11.956,11.956,0,0,1,4.57.857,10.877,10.877,0,0,1,3.618,2.38l-3.062,3.062a6.533,6.533,0,0,0-2.241-1.721,6.672,6.672,0,0,0-2.886-.623,6.567,6.567,0,0,0-3.545.967,6.808,6.808,0,0,0-2.446,2.659,8.108,8.108,0,0,0-.894,3.845,8.064,8.064,0,0,0,.894,3.838A6.875,6.875,0,0,0,84.961-4.49a6.53,6.53,0,0,0,3.545.974,6.672,6.672,0,0,0,2.886-.623,6.533,6.533,0,0,0,2.241-1.721Zm2.783-19.175h4.482v9.155h9.624v-9.155h4.482V0h-4.482V-8.862H103.96V0H99.478Zm29.136,0h13.1v3.955h-9.053v4.746h8.467v3.955h-8.467v5.361h9.492V0H128.613Zm17.2,0h4.453L161.543-7.207V-21.973h4.482V0H161.5L150.205-14.795V0h-4.395Zm34.277-.439a12.146,12.146,0,0,1,4.512.835,10.717,10.717,0,0,1,3.677,2.4l-3.354,2.93a5.968,5.968,0,0,0-2.161-1.633,6.847,6.847,0,0,0-2.849-.579,6.6,6.6,0,0,0-3.523.93,6.241,6.241,0,0,0-2.351,2.615,8.736,8.736,0,0,0-.835,3.926,8.69,8.69,0,0,0,.835,3.918,6.3,6.3,0,0,0,2.351,2.615,6.561,6.561,0,0,0,3.523.938A6.4,6.4,0,0,0,184.08-4.9a6.75,6.75,0,0,0,2.292-3.728h-6.489v-3.955h10.576l.117.806q.044.4.073.806t.029.864a10.981,10.981,0,0,1-.791,4.211,9.944,9.944,0,0,1-2.234,3.347,10.185,10.185,0,0,1-3.4,2.2,11.416,11.416,0,0,1-4.285.784,11.62,11.62,0,0,1-4.5-.857,10.92,10.92,0,0,1-3.6-2.4A10.814,10.814,0,0,1,169.5-6.438a12.043,12.043,0,0,1-.842-4.548,11.991,11.991,0,0,1,.85-4.563,10.851,10.851,0,0,1,2.388-3.625,10.851,10.851,0,0,1,3.625-2.388A11.991,11.991,0,0,1,180.088-22.412Zm17.71.439V0h-4.482V-21.973Zm3.809,0h4.453L217.339-7.207V-21.973h4.482V0h-4.526L206-14.795V0h-4.395Zm24.023,0h13.1v3.955h-9.053v4.746h8.467v3.955h-8.467v5.361h9.492V0H225.63ZM.732,25.014a11.991,11.991,0,0,1,.85-4.563A10.766,10.766,0,0,1,7.6,14.438a11.991,11.991,0,0,1,4.563-.85,11.991,11.991,0,0,1,4.563.85,10.766,10.766,0,0,1,6.013,6.013,11.991,11.991,0,0,1,.85,4.563,11.991,11.991,0,0,1-.85,4.563,10.766,10.766,0,0,1-6.013,6.013,11.991,11.991,0,0,1-4.563.85A11.991,11.991,0,0,1,7.6,35.59a10.766,10.766,0,0,1-6.013-6.013A11.991,11.991,0,0,1,.732,25.014Zm4.541,0a8.064,8.064,0,0,0,.894,3.838A6.875,6.875,0,0,0,8.613,31.51a6.53,6.53,0,0,0,3.545.974A6.53,6.53,0,0,0,15.7,31.51a6.875,6.875,0,0,0,2.446-2.659,8.064,8.064,0,0,0,.894-3.838,8.108,8.108,0,0,0-.894-3.845A6.808,6.808,0,0,0,15.7,18.51a6.567,6.567,0,0,0-3.545-.967,6.567,6.567,0,0,0-3.545.967,6.808,6.808,0,0,0-2.446,2.659A8.108,8.108,0,0,0,5.273,25.014ZM26.221,36V14.027h7.588A9.606,9.606,0,0,1,40.2,15.968a6.531,6.531,0,0,1,2.3,5.266,6.968,6.968,0,0,1-1.04,3.838,6.814,6.814,0,0,1-2.981,2.52,11.092,11.092,0,0,1-4.666.894h-3.12V36Zm7.134-18.237H30.688v7h2.666a5.163,5.163,0,0,0,3.428-1,3.165,3.165,0,0,0,1.172-2.52,3.123,3.123,0,0,0-1.172-2.5A5.217,5.217,0,0,0,33.354,17.763Zm9.58.22V14.027H59.985v3.955H53.7V36H49.219V17.982Zm23.584-3.955V36H62.036V14.027ZM70.327,36V14.027h5.83l4.834,10.356q.337.85.667,1.707t.637,1.721q.308-.894.652-1.772t.71-1.655l4.819-10.356h5.713V36H89.707q0-4.014.073-7.837t.308-7.661q-.381,1.011-.8,2.007t-.872,1.963l-3.706,7.939H79.79L76.1,24.5q-.454-1.113-.879-2.19t-.835-2.161q.161,2.549.256,4.929t.132,5Q74.81,32.7,74.81,36ZM102.48,14.027V36H98V14.027Zm2.637,18.823L116.5,17.982H106.1V14.027h16.655v3.164L111.387,32.045h11.865V36H105.117ZM123.984,36l8.569-21.973h5.024L146.147,36h-4.79l-1.846-4.922H130.62L128.774,36Zm14.063-8.877q-.879-2.578-1.567-4.614t-1.406-4.2q-.718,2.168-1.414,4.2t-1.575,4.614Zm6.782-9.141V14.027H161.88v3.955H155.6V36h-4.482V17.982Zm23.584-3.955V36h-4.482V14.027Zm2.637,10.986a11.991,11.991,0,0,1,.85-4.563,10.766,10.766,0,0,1,6.013-6.013,12.678,12.678,0,0,1,9.126,0,10.766,10.766,0,0,1,6.013,6.013,11.991,11.991,0,0,1,.85,4.563,11.991,11.991,0,0,1-.85,4.563,10.766,10.766,0,0,1-6.013,6.013,12.678,12.678,0,0,1-9.126,0,10.766,10.766,0,0,1-6.013-6.013A11.991,11.991,0,0,1,171.05,25.014Zm4.541,0a8.064,8.064,0,0,0,.894,3.838,6.875,6.875,0,0,0,2.446,2.659,6.937,6.937,0,0,0,7.09,0,6.875,6.875,0,0,0,2.446-2.659,8.064,8.064,0,0,0,.894-3.838,8.108,8.108,0,0,0-.894-3.845,6.808,6.808,0,0,0-2.446-2.659,6.982,6.982,0,0,0-7.09,0,6.808,6.808,0,0,0-2.446,2.659A8.108,8.108,0,0,0,175.591,25.014Zm20.947-10.986h4.453l11.279,14.766V14.027h4.482V36h-4.526L200.933,21.205V36h-4.395Zm38.979,26.206h-3.809a22.147,22.147,0,0,1-3.3-6.409,22.556,22.556,0,0,1,0-13.953,22.326,22.326,0,0,1,3.3-6.431h3.809a21.672,21.672,0,0,0-3.413,6.4,22.069,22.069,0,0,0,3.413,20.391Zm9.639-7.749a3.463,3.463,0,0,0,2.263-.747,2.3,2.3,0,0,0,.916-1.846,2.073,2.073,0,0,0-.593-1.494,5.776,5.776,0,0,0-1.56-1.106q-.967-.491-2.095-.959t-2.234-1.018a11.2,11.2,0,0,1-2.058-1.3,5.834,5.834,0,0,1-1.509-1.8,5.251,5.251,0,0,1-.571-2.534,5.591,5.591,0,0,1,.923-3.2,6.08,6.08,0,0,1,2.593-2.131,9.271,9.271,0,0,1,3.882-.762,13.992,13.992,0,0,1,6.768,1.758l-1.846,3.75a9.49,9.49,0,0,0-4.907-1.553,3.57,3.57,0,0,0-2.087.549,1.7,1.7,0,0,0-.784,1.458,1.819,1.819,0,0,0,.557,1.333,5.313,5.313,0,0,0,1.472,1q.916.439,2,.894,1.128.469,2.285,1.025a11.4,11.4,0,0,1,2.139,1.333,6,6,0,0,1,1.575,1.875,5.51,5.51,0,0,1,.593,2.651,6.222,6.222,0,0,1-1.011,3.508,6.9,6.9,0,0,1-2.783,2.4,9.114,9.114,0,0,1-4.072.872,12.746,12.746,0,0,1-4.263-.754,13.832,13.832,0,0,1-3.911-2.131l2.109-3.574a10.036,10.036,0,0,0,1.89,1.289,11.1,11.1,0,0,0,2.2.894A7.778,7.778,0,0,0,245.156,32.484ZM256.1,14.027h13.1v3.955h-9.053v4.746h8.467v3.955h-8.467v5.361h9.492V36H256.1Zm15.879,10.986a11.991,11.991,0,0,1,.85-4.563,10.766,10.766,0,0,1,6.013-6.013,12.678,12.678,0,0,1,9.126,0,10.766,10.766,0,0,1,6.013,6.013,11.991,11.991,0,0,1,.85,4.563,11.991,11.991,0,0,1-.85,4.563,10.766,10.766,0,0,1-6.013,6.013,12.678,12.678,0,0,1-9.126,0,10.766,10.766,0,0,1-6.013-6.013A11.991,11.991,0,0,1,271.978,25.014Zm4.541,0a8.064,8.064,0,0,0,.894,3.838,6.875,6.875,0,0,0,2.446,2.659,6.937,6.937,0,0,0,7.09,0,6.875,6.875,0,0,0,2.446-2.659,8.064,8.064,0,0,0,.894-3.838,8.108,8.108,0,0,0-.894-3.845,6.808,6.808,0,0,0-2.446-2.659,6.982,6.982,0,0,0-7.09,0,6.808,6.808,0,0,0-2.446,2.659A8.108,8.108,0,0,0,276.519,25.014Zm19.775,15.22a21.976,21.976,0,0,0,3.413-20.391,21.672,21.672,0,0,0-3.413-6.4H300.1a22.326,22.326,0,0,1,3.3,6.431,22.556,22.556,0,0,1,0,13.953,22.147,22.147,0,0,1-3.3,6.409Z" transform="translate(-0.439 22.412)"/>
</svg>
