<svg width="920" height="45" viewBox="0 0 920 45" fill="none" xmlns="http://www.w3.org/2000/svg">
<g clip-path="url(#clip0)">
<path d="M13.868 31.698C15.2329 31.7423 16.5693 31.3016 17.64 30.454C18.1162 30.097 18.5024 29.6335 18.7677 29.1006C19.033 28.5678 19.1701 27.9803 19.168 27.385C19.1772 26.9255 19.0944 26.4688 18.9246 26.0417C18.7547 25.6146 18.5012 25.2258 18.179 24.898C17.4206 24.1442 16.5419 23.522 15.579 23.057C14.505 22.5124 13.3413 21.979 12.088 21.457C10.8513 20.937 9.61033 20.372 8.365 19.762C7.14675 19.1693 5.99664 18.4457 4.935 17.604C3.90177 16.7851 3.04606 15.7644 2.42 14.604C1.75442 13.3007 1.42706 11.8509 1.468 10.388C1.42691 8.49697 1.96343 6.63831 3.006 5.06005C4.08502 3.49549 5.58238 2.26599 7.327 1.51205C9.36747 0.629292 11.5743 0.196799 13.797 0.244045C17.7436 0.250191 21.6241 1.25689 25.076 3.17004L22 9.41305C20.5976 8.49065 19.0564 7.7992 17.435 7.36505C16.2557 7.04582 15.0431 6.86592 13.822 6.82905C12.5958 6.76781 11.3807 7.08705 10.343 7.74305C9.93646 8.00245 9.60304 8.36155 9.37445 8.78617C9.14586 9.2108 9.02969 9.68685 9.037 10.169C9.03178 10.5827 9.11144 10.993 9.27106 11.3747C9.43067 11.7564 9.66685 12.1013 9.965 12.388C10.6841 13.0745 11.5137 13.635 12.419 14.046C13.4363 14.534 14.5473 15.0297 15.752 15.533C17.0053 16.053 18.275 16.622 19.561 17.24C20.8273 17.8458 22.0226 18.59 23.125 19.459C24.2051 20.308 25.0987 21.3704 25.75 22.58C26.4433 23.9456 26.7833 25.4632 26.739 26.994C26.7746 29.0655 26.1876 31.0999 25.054 32.834C23.8977 34.5623 22.2945 35.9446 20.415 36.834C18.2932 37.8352 15.9686 38.3318 13.623 38.285C11.2021 38.2736 8.80092 37.8488 6.523 37.029C4.17129 36.2065 1.9684 35.0083 0 33.481L3.516 27.531C4.48143 28.3642 5.53897 29.0842 6.668 29.677C7.83594 30.3027 9.06766 30.8012 10.342 31.164C11.4872 31.5035 12.6737 31.6831 13.868 31.698ZM32.105 0.976044H53.931V7.56005H38.843V15.46H52.955V22.044H38.843V30.969H54.668V37.553H32.105V0.976044ZM57.593 37.553L71.875 0.976044H80.249L94.532 37.553H86.548L83.468 29.36H68.653L65.577 37.553H57.593ZM81.031 22.776C80.0557 19.9147 79.1847 17.3554 78.418 15.098C77.6513 12.8407 76.87 10.5074 76.074 8.09805C75.274 10.504 74.4887 12.8374 73.718 15.098C72.9473 17.3587 72.0723 19.919 71.093 22.779L81.031 22.776ZM97.706 0.976044H110.157C114.616 0.976044 118.099 1.98805 120.606 4.01205C121.833 4.98893 122.812 6.24076 123.465 7.66632C124.119 9.09188 124.427 10.6512 124.366 12.218C124.422 14.4932 123.732 16.7241 122.401 18.57C120.995 20.419 119.057 21.7933 116.847 22.508L125.538 37.553H117.168L109.058 23.532H105.176V37.553H97.706V0.976044ZM109.278 17.338C111.24 17.4665 113.195 16.9897 114.878 15.972C115.487 15.5628 115.982 15.006 116.317 14.3535C116.652 13.7011 116.817 12.9743 116.795 12.241C116.819 11.5109 116.655 10.7868 116.319 10.1379C115.984 9.48902 115.487 8.93685 114.878 8.53405C113.189 7.53321 111.237 7.0658 109.278 7.19304H105.178V17.338H109.278ZM160.425 32.898C158.694 34.5977 156.645 35.9399 154.395 36.848C151.975 37.8242 149.387 38.3126 146.778 38.285C144.177 38.3123 141.595 37.832 139.178 36.871C136.915 35.9676 134.858 34.6162 133.13 32.898C131.411 31.1751 130.057 29.1223 129.151 26.863C128.188 24.4463 127.707 21.8645 127.735 19.263C127.707 16.6616 128.188 14.0797 129.151 11.663C130.057 9.40381 131.411 7.35104 133.13 5.62805C134.856 3.90981 136.911 2.55779 139.172 1.65305C141.589 0.692094 144.171 0.211794 146.772 0.239044C149.38 0.212213 151.968 0.697028 154.389 1.66605C156.644 2.5697 158.695 3.91738 160.419 5.62905L155.319 10.729C154.298 9.5131 153.023 8.53524 151.584 7.86405C150.078 7.16423 148.435 6.81025 146.774 6.82804C144.692 6.7926 142.644 7.35107 140.868 8.43805C139.135 9.51922 137.727 11.0484 136.791 12.864C135.774 14.8419 135.263 17.0406 135.302 19.264C135.262 21.4841 135.773 23.6795 136.791 25.653C137.731 27.4655 139.139 28.9936 140.868 30.079C142.643 31.1731 144.694 31.735 146.778 31.698C148.439 31.7158 150.082 31.3619 151.588 30.662C153.027 29.9911 154.302 29.0136 155.323 27.798L160.425 32.898ZM165.064 0.978046H172.535V16.219H188.575V0.976044H196.046V37.553H188.575V22.798H172.535V37.553H165.068L165.064 0.978046ZM213.624 0.978046H235.45V7.56205H220.362V15.462H234.473V22.046H220.362V30.971H236.182V37.553H213.623L213.624 0.978046ZM242.286 0.978046H249.708L268.508 25.558V0.978046H275.979V37.553H268.435L249.61 12.924V37.553H242.286V0.978046ZM299.415 0.246044C301.987 0.227923 304.539 0.699654 306.935 1.63604C309.232 2.5322 311.318 3.89411 313.063 5.63605L307.468 10.51C306.492 9.33993 305.26 8.40967 303.868 7.79105C302.372 7.13412 300.753 6.80573 299.119 6.82804C297.055 6.78338 295.021 7.31979 293.247 8.37605C291.551 9.42146 290.191 10.9325 289.329 12.729C288.364 14.7696 287.887 17.0071 287.937 19.264C287.886 21.5172 288.363 23.751 289.329 25.787C290.195 27.5806 291.554 29.0904 293.247 30.14C295.019 31.2037 297.056 31.7438 299.122 31.698C301.636 31.7732 304.096 30.9587 306.068 29.398C307.996 27.8114 309.34 25.6278 309.889 23.192H299.068V16.608H316.695L316.895 17.949C316.944 18.3877 316.984 18.8347 317.017 19.29C317.05 19.7454 317.066 20.225 317.066 20.729C317.092 23.13 316.644 25.5124 315.748 27.74C314.9 29.8318 313.633 31.728 312.025 33.312C310.402 34.9021 308.476 36.1501 306.361 36.982C304.086 37.8691 301.662 38.3105 299.22 38.282C296.65 38.3082 294.101 37.8231 291.72 36.855C289.476 35.9384 287.439 34.5829 285.726 32.868C284.014 31.1439 282.668 29.091 281.771 26.833C280.819 24.4234 280.343 21.8518 280.371 19.261C280.343 16.6596 280.824 14.0778 281.787 11.661C282.693 9.40181 284.047 7.34904 285.766 5.62605C287.492 3.90781 289.547 2.55579 291.808 1.65105C294.228 0.69172 296.811 0.213787 299.414 0.244045L299.415 0.246044ZM328.932 0.978046V37.553H321.461V0.976044L328.932 0.978046ZM335.28 0.978046H342.702L361.502 25.558V0.978046H368.968V37.553H361.424L342.603 12.924V37.553H335.279L335.28 0.978046ZM375.319 0.978046H397.145V7.56205H382.056V15.462H396.168V22.046H382.056V30.971H397.876V37.553H375.318L375.319 0.978046ZM413.258 19.267C413.23 16.6656 413.711 14.0838 414.674 11.667C415.58 9.40781 416.934 7.35504 418.653 5.63205C420.379 3.91381 422.434 2.56179 424.695 1.65704C427.112 0.696091 429.694 0.215796 432.295 0.243046C434.896 0.215796 437.478 0.696091 439.895 1.65704C442.156 2.56179 444.211 3.91381 445.937 5.63205C447.656 7.35504 449.01 9.40781 449.916 11.667C450.879 14.0838 451.36 16.6656 451.332 19.267C451.36 21.8685 450.879 24.4503 449.916 26.867C449.013 29.1239 447.663 31.1752 445.948 32.898C444.222 34.6163 442.167 35.9683 439.906 36.873C437.489 37.834 434.907 38.3143 432.306 38.287C429.705 38.3143 427.123 37.834 424.706 36.873C422.441 35.9696 420.382 34.6175 418.653 32.898C416.934 31.1751 415.58 29.1223 414.674 26.863C413.711 24.4467 413.229 21.8652 413.257 19.264L413.258 19.267ZM420.826 19.267C420.786 21.4871 421.297 23.6825 422.315 25.656C423.255 27.4685 424.663 28.9966 426.392 30.082C428.166 31.1747 430.217 31.7355 432.3 31.698C434.384 31.7337 436.434 31.1708 438.208 30.076C439.937 28.9906 441.345 27.4625 442.285 25.65C443.303 23.6765 443.814 21.4811 443.774 19.261C443.813 17.0376 443.301 14.839 442.285 12.861C441.349 11.0454 439.941 9.51622 438.208 8.43505C436.432 7.34806 434.382 6.78992 432.3 6.82605C430.218 6.78992 428.168 7.34806 426.392 8.43505C424.659 9.51622 423.251 11.0454 422.315 12.861C421.298 14.8399 420.786 17.0396 420.826 19.264V19.267ZM455.738 37.553V0.976044H468.384C472.925 0.976044 476.474 2.05305 479.029 4.20705C480.294 5.27883 481.298 6.62604 481.962 8.14548C482.627 9.66492 482.934 11.3163 482.862 12.973C482.918 15.2259 482.316 17.4462 481.129 19.362C479.917 21.2145 478.19 22.6723 476.161 23.556C473.707 24.6068 471.054 25.1141 468.385 25.043H463.185V37.553H455.738ZM467.627 7.19805H463.184V18.854H467.627C469.668 18.9974 471.693 18.4097 473.34 17.196C473.963 16.6918 474.463 16.0518 474.802 15.325C475.14 14.5982 475.308 13.8037 475.293 13.002C475.31 12.2037 475.142 11.4122 474.803 10.6891C474.465 9.96594 473.964 9.3305 473.34 8.83204C471.686 7.63378 469.664 7.05535 467.627 7.19805ZM483.594 7.56404V0.980045H512.012V7.56404H501.539V37.553H494.068V7.56005L483.594 7.56404ZM522.901 0.980045V37.553H515.43V0.976044L522.901 0.980045ZM529.248 37.553V0.976044H538.968L547.025 18.216C547.399 19.1587 547.769 20.1057 548.136 21.057C548.503 22.0084 548.857 22.9634 549.198 23.922C549.54 22.9307 549.902 21.947 550.284 20.971C550.666 19.995 551.061 19.0767 551.468 18.216L559.5 0.976044H569.021V37.553H561.548C561.548 33.099 561.589 28.7504 561.67 24.507C561.751 20.2637 561.922 16.0127 562.183 11.754C561.76 12.876 561.316 13.9897 560.852 15.095C560.388 16.2004 559.904 17.2897 559.399 18.363L553.223 31.579H545.023L538.868 18.411C538.363 17.1757 537.875 15.9604 537.403 14.765C536.931 13.5697 536.467 12.3697 536.011 11.165C536.19 13.9937 536.333 16.729 536.438 19.371C536.543 22.013 536.617 24.7887 536.658 27.698C536.699 30.608 536.719 33.892 536.719 37.55L529.248 37.553ZM582.837 0.976044V37.553H575.368V0.976044H582.837ZM587.232 32.311L606.202 7.56005H588.868V0.976044H616.627V6.24305L597.681 30.969H617.456V37.553H587.232V32.311ZM618.677 37.553L632.959 0.976044H641.333L655.616 37.553H647.633L644.557 29.36H629.737L626.661 37.553H618.677ZM642.115 22.776C641.138 19.9147 640.268 17.3544 639.503 15.095C638.738 12.8357 637.957 10.5024 637.159 8.09505C636.359 10.501 635.574 12.8344 634.803 15.095C634.032 17.3557 633.157 19.916 632.178 22.776H642.115ZM653.415 7.56005V0.976044H681.833V7.56005H671.363V37.553H663.892V7.56005H653.415ZM692.722 0.976044V37.553H685.251V0.976044H692.722ZM697.117 19.265C697.089 16.6636 697.57 14.0817 698.533 11.665C699.439 9.40582 700.793 7.35306 702.512 5.63004C704.238 3.91181 706.293 2.55979 708.554 1.65504C710.971 0.694093 713.553 0.213797 716.154 0.241047C718.755 0.213797 721.337 0.694093 723.754 1.65504C726.015 2.55979 728.07 3.91181 729.796 5.63004C731.515 7.35306 732.869 9.40582 733.775 11.665C734.738 14.0817 735.219 16.6636 735.191 19.265C735.219 21.8665 734.738 24.4483 733.775 26.865C732.873 29.1224 731.524 31.1743 729.81 32.898C728.084 34.6152 726.029 35.9662 723.768 36.87C721.351 37.831 718.769 38.3113 716.168 38.284C713.567 38.3113 710.985 37.831 708.568 36.87C706.303 35.9675 704.244 34.6164 702.515 32.898C700.796 31.175 699.442 29.1223 698.536 26.863C697.573 24.4467 697.092 21.8652 697.12 19.264L697.117 19.265ZM704.685 19.265C704.645 21.4851 705.156 23.6805 706.174 25.654C707.114 27.4665 708.522 28.9946 710.251 30.08C712.026 31.1741 714.078 31.7357 716.163 31.698C718.246 31.7341 720.295 31.1722 722.068 30.079C723.797 28.9936 725.205 27.4655 726.145 25.653C727.163 23.6795 727.674 21.4841 727.634 19.264C727.673 17.0406 727.162 14.8419 726.145 12.864C725.209 11.0484 723.801 9.51922 722.068 8.43805C720.292 7.35106 718.242 6.79292 716.16 6.82905C714.078 6.79292 712.028 7.35106 710.252 8.43805C708.519 9.51922 707.111 11.0484 706.175 12.864C705.159 14.8421 704.648 17.0407 704.688 19.264L704.685 19.265ZM739.597 0.976044H747.019L765.819 25.556V0.976044H773.29V37.553H765.746L746.924 12.924V37.553H739.6L739.597 0.976044ZM804.568 44.598H798.218C795.812 41.3669 793.953 37.763 792.713 33.93C791.495 30.1839 790.873 26.2694 790.87 22.33C790.872 18.3802 791.494 14.4552 792.713 10.698C793.954 6.85591 795.814 3.24185 798.218 -0.00195312H804.568C802.086 3.205 800.163 6.80752 798.88 10.654C797.625 14.3953 796.983 18.3149 796.98 22.261C796.984 26.2111 797.626 30.1345 798.88 33.88C800.168 37.7437 802.09 41.3659 804.568 44.598ZM820.63 31.698C821.995 31.7423 823.331 31.3016 824.402 30.454C824.878 30.0965 825.264 29.6325 825.529 29.0991C825.794 28.5656 825.931 27.9776 825.928 27.382C825.937 26.9225 825.854 26.4658 825.685 26.0387C825.515 25.6116 825.261 25.2228 824.939 24.895C824.181 24.1412 823.302 23.519 822.339 23.054C821.265 22.5094 820.101 21.976 818.848 21.454C817.611 20.934 816.37 20.369 815.125 19.759C813.907 19.1663 812.757 18.4427 811.695 17.601C810.662 16.7821 809.806 15.7614 809.18 14.601C808.514 13.2968 808.187 11.846 808.228 10.382C808.187 8.49096 808.723 6.63231 809.766 5.05405C810.845 3.48949 812.342 2.25999 814.087 1.50605C816.127 0.623291 818.334 0.190798 820.557 0.238045C824.504 0.24419 828.384 1.25089 831.836 3.16405L828.76 9.40705C827.358 8.48465 825.816 7.7932 824.195 7.35905C823.016 7.03982 821.803 6.85992 820.582 6.82305C819.356 6.76181 818.141 7.08105 817.103 7.73705C816.696 7.99645 816.363 8.35555 816.134 8.78017C815.906 9.2048 815.79 9.68085 815.797 10.163C815.792 10.5767 815.871 10.987 816.031 11.3687C816.191 11.7504 816.427 12.0953 816.725 12.382C817.444 13.0686 818.274 13.6291 819.179 14.04C820.196 14.528 821.307 15.0237 822.512 15.527C823.765 16.047 825.035 16.616 826.321 17.234C827.587 17.8398 828.783 18.584 829.885 19.453C830.965 20.302 831.859 21.3644 832.51 22.574C833.203 23.9396 833.543 25.4572 833.499 26.988C833.535 29.0595 832.948 31.0939 831.814 32.828C830.658 34.5563 829.055 35.9386 827.175 36.828C825.055 37.8308 822.731 38.3295 820.386 38.285C817.965 38.2736 815.564 37.8488 813.286 37.029C810.936 36.206 808.735 35.0078 806.768 33.481L810.284 27.531C811.248 28.364 812.305 29.084 813.433 29.677C814.601 30.3027 815.833 30.8012 817.107 31.164C818.251 31.5032 819.437 31.6829 820.63 31.698ZM838.868 0.976044H860.694V7.56005H845.606V15.46H859.717V22.044H845.606V30.969H861.426V37.553H838.868V0.976044ZM865.333 19.265C865.305 16.6636 865.786 14.0817 866.749 11.665C867.655 9.40582 869.009 7.35306 870.728 5.63004C872.454 3.91181 874.509 2.55979 876.77 1.65504C879.187 0.694093 881.769 0.213797 884.37 0.241047C886.971 0.213797 889.553 0.694093 891.97 1.65504C894.231 2.55979 896.286 3.91181 898.012 5.63004C899.731 7.35306 901.085 9.40582 901.991 11.665C902.954 14.0817 903.435 16.6636 903.407 19.265C903.435 21.8665 902.954 24.4483 901.991 26.865C901.088 29.1226 899.738 31.1746 898.023 32.898C896.297 34.6163 894.242 35.9683 891.981 36.873C889.564 37.834 886.982 38.3143 884.381 38.287C881.78 38.3143 879.198 37.834 876.781 36.873C874.516 35.9696 872.457 34.6175 870.728 32.898C869.009 31.175 867.655 29.1223 866.749 26.863C865.786 24.4467 865.304 21.8652 865.332 19.264L865.333 19.265ZM872.901 19.265C872.861 21.4851 873.372 23.6805 874.39 25.654C875.331 27.4663 876.738 28.994 878.468 30.079C880.242 31.1726 882.292 31.7344 884.375 31.698C886.459 31.7337 888.509 31.1708 890.283 30.076C892.012 28.9906 893.42 27.4625 894.36 25.65C895.378 23.6765 895.889 21.4811 895.849 19.261C895.888 17.0376 895.377 14.8389 894.36 12.861C893.424 11.0454 892.016 9.51622 890.283 8.43505C888.507 7.34806 886.457 6.78992 884.375 6.82605C882.293 6.79101 880.244 7.35019 878.468 8.43805C876.735 9.51922 875.327 11.0484 874.391 12.864C873.374 14.8419 872.862 17.0405 872.901 19.264V19.265ZM905.86 44.598C908.338 41.3669 910.26 37.7457 911.548 33.883C912.802 30.1375 913.444 26.2141 913.448 22.264C913.445 18.3179 912.803 14.3983 911.548 10.657C910.265 6.80947 908.342 3.20591 905.86 -0.00195312H912.208C914.612 3.24185 916.472 6.85591 917.713 10.698C918.932 14.4552 919.554 18.3802 919.556 22.33C919.553 26.2694 918.932 30.1839 917.713 33.93C916.473 37.7631 914.613 41.3669 912.207 44.598H905.86Z" fill="url(#paint0_linear)"/>
</g>
<defs>
<linearGradient id="paint0_linear" x1="65.5" y1="126.5" x2="741.032" y2="22.2047" gradientUnits="userSpaceOnUse">
<stop stop-color="#5966FF" stop-opacity="0.72"/>
<stop offset="1" stop-color="#F5F6FF"/>
</linearGradient>
<clipPath id="clip0">
<rect width="919.556" height="44.6" fill="white"/>
</clipPath>
</defs>
</svg>
