<svg xmlns="http://www.w3.org/2000/svg" xmlns:xlink="http://www.w3.org/1999/xlink" width="279.888" height="62.646" viewBox="0 0 279.888 62.646">
  <defs>
    <style>
      .cls-1 {
        fill: url(#linear-gradient);
      }
    </style>
    <linearGradient id="linear-gradient" x1="1.217" y1="0.244" x2="0" y2="0.322" gradientUnits="objectBoundingBox">
      <stop offset="0" stop-color="#fff"/>
      <stop offset="1" stop-color="#f274cc" stop-opacity="0.302"/>
    </linearGradient>
  </defs>
  <path id="smm" class="cls-1" d="M8.76-3.516a3.463,3.463,0,0,0,2.263-.747,2.3,2.3,0,0,0,.916-1.846A2.073,2.073,0,0,0,11.345-7.6a5.776,5.776,0,0,0-1.56-1.106Q8.818-9.2,7.69-9.668T5.457-10.686a11.2,11.2,0,0,1-2.058-1.3,5.834,5.834,0,0,1-1.509-1.8,5.251,5.251,0,0,1-.571-2.534,5.591,5.591,0,0,1,.923-3.2A6.08,6.08,0,0,1,4.834-21.65a9.271,9.271,0,0,1,3.882-.762,13.992,13.992,0,0,1,6.768,1.758L13.638-16.9a9.411,9.411,0,0,0-2.739-1.23,9.369,9.369,0,0,0-2.168-.322,3.57,3.57,0,0,0-2.087.549,1.7,1.7,0,0,0-.784,1.458,1.819,1.819,0,0,0,.557,1.333,5.313,5.313,0,0,0,1.472,1q.916.439,2,.894,1.128.469,2.285,1.025a11.4,11.4,0,0,1,2.139,1.333,6,6,0,0,1,1.575,1.875,5.51,5.51,0,0,1,.593,2.651,6.222,6.222,0,0,1-1.011,3.508,6.9,6.9,0,0,1-2.783,2.4A9.114,9.114,0,0,1,8.613.439,12.746,12.746,0,0,1,4.351-.315,13.832,13.832,0,0,1,.439-2.446L2.549-6.021a10.036,10.036,0,0,0,1.89,1.289,11.1,11.1,0,0,0,2.2.894A7.778,7.778,0,0,0,8.76-3.516Zm9.771-7.471a11.991,11.991,0,0,1,.85-4.563,10.851,10.851,0,0,1,2.388-3.625,10.851,10.851,0,0,1,3.625-2.388,11.991,11.991,0,0,1,4.563-.85,11.991,11.991,0,0,1,4.563.85,10.851,10.851,0,0,1,3.625,2.388,10.851,10.851,0,0,1,2.388,3.625,11.991,11.991,0,0,1,.85,4.563,11.991,11.991,0,0,1-.85,4.563A10.851,10.851,0,0,1,38.145-2.8,10.851,10.851,0,0,1,34.519-.41a11.991,11.991,0,0,1-4.563.85,11.991,11.991,0,0,1-4.563-.85A10.851,10.851,0,0,1,21.768-2.8,10.851,10.851,0,0,1,19.38-6.423,11.991,11.991,0,0,1,18.53-10.986Zm4.541,0a8.064,8.064,0,0,0,.894,3.838A6.875,6.875,0,0,0,26.411-4.49a6.53,6.53,0,0,0,3.545.974A6.53,6.53,0,0,0,33.5-4.49a6.875,6.875,0,0,0,2.446-2.659,8.064,8.064,0,0,0,.894-3.838,8.108,8.108,0,0,0-.894-3.845A6.808,6.808,0,0,0,33.5-17.49a6.567,6.567,0,0,0-3.545-.967,6.567,6.567,0,0,0-3.545.967,6.808,6.808,0,0,0-2.446,2.659A8.108,8.108,0,0,0,23.071-10.986ZM62.461-2.8A11.088,11.088,0,0,1,58.843-.425a11.867,11.867,0,0,1-4.57.864,11.991,11.991,0,0,1-4.563-.85A10.851,10.851,0,0,1,46.084-2.8,10.851,10.851,0,0,1,43.7-6.423a11.991,11.991,0,0,1-.85-4.563,11.991,11.991,0,0,1,.85-4.563,10.851,10.851,0,0,1,2.388-3.625,10.851,10.851,0,0,1,3.625-2.388,11.991,11.991,0,0,1,4.563-.85,11.956,11.956,0,0,1,4.57.857,10.877,10.877,0,0,1,3.618,2.38L59.4-16.113a6.533,6.533,0,0,0-2.241-1.721,6.672,6.672,0,0,0-2.886-.623,6.567,6.567,0,0,0-3.545.967,6.808,6.808,0,0,0-2.446,2.659,8.108,8.108,0,0,0-.894,3.845,8.064,8.064,0,0,0,.894,3.838A6.875,6.875,0,0,0,50.728-4.49a6.53,6.53,0,0,0,3.545.974,6.672,6.672,0,0,0,2.886-.623A6.533,6.533,0,0,0,59.4-5.859Zm7.266-19.175V0H65.244V-21.973ZM71.631,0,80.2-21.973h5.024L93.794,0H89L87.158-4.922H78.267L76.421,0ZM85.693-8.877q-.879-2.578-1.567-4.614T82.72-17.7q-.718,2.168-1.414,4.2T79.731-8.877ZM109.526,0H95.7V-21.973h4.482V-3.955h9.346Zm9.814,0V-21.973h5.83L130-11.616q.337.85.667,1.707t.637,1.721q.308-.894.652-1.772t.71-1.655l4.819-10.356H143.2V0h-4.482q0-4.014.073-7.837T139.1-15.5q-.381,1.011-.8,2.007t-.872,1.963l-3.706,7.939H128.8l-3.691-7.91q-.454-1.113-.879-2.19T123.4-15.85q.161,2.549.256,4.929t.132,5q.037,2.622.037,5.918Zm27.671-21.973h13.1v3.955h-9.053v4.746h8.467v3.955h-8.467v5.361h9.492V0H147.012Zm24.111,22h-6.914V-21.943h6.914q6.475,0,9.946,2.864a9.9,9.9,0,0,1,3.472,8.093,9.984,9.984,0,0,1-3.472,8.13Q177.6.029,171.123.029Zm.1-3.955q4.248,0,6.511-1.853A6.353,6.353,0,0,0,180-10.986a6.273,6.273,0,0,0-2.263-5.171q-2.263-1.831-6.511-1.831h-2.534V-3.926ZM191.66-21.973V0h-4.482V-21.973ZM193.564,0l8.569-21.973h5.024L215.728,0h-4.79l-1.846-4.922H200.2L198.354,0Zm14.063-8.877q-.879-2.578-1.567-4.614t-1.406-4.2q-.718,2.168-1.414,4.2t-1.575,4.614ZM1.9,36V14.027h5.83l4.834,10.356q.337.85.667,1.707t.637,1.721q.308-.894.652-1.772t.71-1.655l4.819-10.356h5.713V36H21.284q0-4.014.073-7.837t.308-7.661q-.381,1.011-.8,2.007T20,24.472l-3.706,7.939H11.367L7.676,24.5q-.454-1.113-.879-2.19T5.962,20.15q.161,2.549.256,4.929t.132,5Q6.387,32.7,6.387,36Zm25.767,0L36.24,14.027h5.024L49.834,36h-4.79L43.2,31.078H34.307L32.461,36Zm14.063-8.877q-.879-2.578-1.567-4.614T38.76,18.3q-.718,2.168-1.414,4.2t-1.575,4.614Zm10-13.1h7.471a9.715,9.715,0,0,1,6.27,1.824,6.006,6.006,0,0,1,2.256,4.929A6.265,6.265,0,0,1,66.555,24.6a6.825,6.825,0,0,1-3.333,2.366L68.438,36H63.413L58.55,27.577H56.221V36H51.738Zm6.943,9.829a5.761,5.761,0,0,0,3.362-.82,2.608,2.608,0,0,0,1.15-2.241,2.571,2.571,0,0,0-1.15-2.227,5.842,5.842,0,0,0-3.362-.806H56.221v6.094ZM75.41,36H70.928V14.027H75.41v9.8q.513-.806,1.069-1.648t1.26-1.824l5.332-6.328h5.742l-7.881,9.346L90.015,36H84.009L77.7,27.226,75.41,29.95ZM91.919,14.027h13.1v3.955H95.962v4.746h8.467v3.955H95.962v5.361h9.492V36H91.919Zm15.439,3.955V14.027h17.051v3.955h-6.284V36h-4.482V17.982Zm23.584-3.955V36H126.46V14.027Zm3.809,0H139.2l11.279,14.766V14.027h4.482V36h-4.526L139.146,21.205V36h-4.395Zm34.277-.439a12.146,12.146,0,0,1,4.512.835,10.717,10.717,0,0,1,3.677,2.4l-3.354,2.93a5.968,5.968,0,0,0-2.161-1.633,6.847,6.847,0,0,0-2.849-.579,6.6,6.6,0,0,0-3.523.93,6.241,6.241,0,0,0-2.351,2.615,8.736,8.736,0,0,0-.835,3.926,8.69,8.69,0,0,0,.835,3.918,6.3,6.3,0,0,0,2.351,2.615,6.561,6.561,0,0,0,3.523.938A6.4,6.4,0,0,0,173.02,31.1a6.75,6.75,0,0,0,2.292-3.728h-6.489V23.417H179.4l.117.806q.044.4.073.806t.029.864a10.981,10.981,0,0,1-.791,4.211,9.944,9.944,0,0,1-2.234,3.347,10.185,10.185,0,0,1-3.4,2.2,11.416,11.416,0,0,1-4.285.784,11.62,11.62,0,0,1-4.5-.857,10.791,10.791,0,0,1-5.969-6.021,12.69,12.69,0,0,1,.007-9.111,10.766,10.766,0,0,1,6.013-6.013A11.991,11.991,0,0,1,169.028,13.588Zm28.184,26.646H193.4a22.147,22.147,0,0,1-3.3-6.409,22.556,22.556,0,0,1,0-13.953,22.326,22.326,0,0,1,3.3-6.431h3.809a21.672,21.672,0,0,0-3.413,6.4,22.069,22.069,0,0,0,3.413,20.391Zm9.639-7.749a3.463,3.463,0,0,0,2.263-.747,2.3,2.3,0,0,0,.916-1.846,2.073,2.073,0,0,0-.593-1.494,5.776,5.776,0,0,0-1.56-1.106q-.967-.491-2.095-.959t-2.234-1.018a11.2,11.2,0,0,1-2.058-1.3,5.834,5.834,0,0,1-1.509-1.8,5.251,5.251,0,0,1-.571-2.534,5.591,5.591,0,0,1,.923-3.2,6.08,6.08,0,0,1,2.593-2.131,9.271,9.271,0,0,1,3.882-.762,13.992,13.992,0,0,1,6.768,1.758l-1.846,3.75a9.49,9.49,0,0,0-4.907-1.553,3.57,3.57,0,0,0-2.087.549,1.7,1.7,0,0,0-.784,1.458,1.819,1.819,0,0,0,.557,1.333,5.313,5.313,0,0,0,1.472,1q.916.439,2,.894,1.128.469,2.285,1.025a11.4,11.4,0,0,1,2.139,1.333,6,6,0,0,1,1.575,1.875,5.51,5.51,0,0,1,.593,2.651,6.222,6.222,0,0,1-1.011,3.508,6.9,6.9,0,0,1-2.783,2.4,9.114,9.114,0,0,1-4.072.872,12.746,12.746,0,0,1-4.263-.754,13.832,13.832,0,0,1-3.911-2.131l2.109-3.574a10.036,10.036,0,0,0,1.89,1.289,11.1,11.1,0,0,0,2.2.894A7.778,7.778,0,0,0,206.851,32.484ZM217.793,36V14.027h5.83l4.834,10.356q.337.85.667,1.707t.637,1.721q.308-.894.652-1.772t.71-1.655l4.819-10.356h5.713V36h-4.482q0-4.014.073-7.837t.308-7.661q-.381,1.011-.8,2.007t-.872,1.963l-3.706,7.939h-4.922l-3.691-7.91q-.454-1.113-.879-2.19t-.835-2.161q.161,2.549.256,4.929t.132,5q.037,2.622.037,5.918Zm27.671,0V14.027h5.83l4.834,10.356q.337.85.667,1.707t.637,1.721q.308-.894.652-1.772t.71-1.655l4.819-10.356h5.713V36h-4.482q0-4.014.073-7.837t.308-7.661q-.381,1.011-.8,2.007t-.872,1.963l-3.706,7.939h-4.922l-3.691-7.91q-.454-1.113-.879-2.19t-.835-2.161q.161,2.549.256,4.929t.132,5q.037,2.622.037,5.918Zm26.646,4.233a21.976,21.976,0,0,0,3.413-20.391,21.672,21.672,0,0,0-3.413-6.4h3.809a22.326,22.326,0,0,1,3.3,6.431,22.556,22.556,0,0,1,0,13.953,22.147,22.147,0,0,1-3.3,6.409Z" transform="translate(-0.439 22.412)"/>
</svg>
