<svg xmlns="http://www.w3.org/2000/svg" xmlns:xlink="http://www.w3.org/1999/xlink" width="837.256" height="44.6" viewBox="0 0 837.256 44.6">
  <defs>
    <style>
      .cls-1 {
        fill: url(#linear-gradient);
      }
    </style>
    <linearGradient id="linear-gradient" x1="1.145" y1="0.336" x2="-0.016" y2="0.5" gradientUnits="objectBoundingBox">
      <stop offset="0" stop-color="#fff"/>
      <stop offset="1" stop-color="#f274cc" stop-opacity="0.302"/>
    </linearGradient>
  </defs>
  <path id="smm" class="cls-1" d="M14.6-5.9a5.776,5.776,0,0,0,3.772-1.244A3.819,3.819,0,0,0,19.9-10.213a3.449,3.449,0,0,0-.989-2.487,9.626,9.626,0,0,0-2.6-1.841q-1.611-.817-3.491-1.6-1.855-.78-3.723-1.695a18.668,18.668,0,0,1-3.43-2.158,9.714,9.714,0,0,1-2.515-3A8.733,8.733,0,0,1,2.2-27.21a9.3,9.3,0,0,1,1.538-5.328,10.131,10.131,0,0,1,4.321-3.548,15.467,15.467,0,0,1,6.47-1.268,23.342,23.342,0,0,1,11.279,2.926l-3.076,6.243a15.694,15.694,0,0,0-4.565-2.048,15.633,15.633,0,0,0-3.613-.536,5.955,5.955,0,0,0-3.479.914,2.827,2.827,0,0,0-1.306,2.426,3.026,3.026,0,0,0,.928,2.219,8.856,8.856,0,0,0,2.454,1.658q1.526.732,3.333,1.487,1.88.78,3.809,1.707a19,19,0,0,1,3.564,2.219,10,10,0,0,1,2.625,3.121,9.164,9.164,0,0,1,.989,4.414,10.348,10.348,0,0,1-1.685,5.84,11.5,11.5,0,0,1-4.639,4A15.206,15.206,0,0,1,14.355.687a21.266,21.266,0,0,1-7.1-1.256A23.061,23.061,0,0,1,.732-4.117l3.516-5.95A16.728,16.728,0,0,0,7.4-7.921a18.518,18.518,0,0,0,3.674,1.487A12.978,12.978,0,0,0,14.6-5.9ZM30.884-18.334a19.941,19.941,0,0,1,1.416-7.6,18.062,18.062,0,0,1,3.979-6.035,18.088,18.088,0,0,1,6.042-3.975,20.006,20.006,0,0,1,7.6-1.414,20.006,20.006,0,0,1,7.6,1.414,18.088,18.088,0,0,1,6.042,3.975,18.062,18.062,0,0,1,3.979,6.035,19.941,19.941,0,0,1,1.416,7.6,19.941,19.941,0,0,1-1.416,7.6A18.062,18.062,0,0,1,63.574-4.7,18.088,18.088,0,0,1,57.532-.728a20.006,20.006,0,0,1-7.6,1.414,20.006,20.006,0,0,1-7.6-1.414A18.088,18.088,0,0,1,36.279-4.7,18.062,18.062,0,0,1,32.3-10.738,19.94,19.94,0,0,1,30.884-18.334Zm7.568,0a13.411,13.411,0,0,0,1.489,6.389,11.45,11.45,0,0,0,4.077,4.426A10.893,10.893,0,0,0,49.927-5.9a10.893,10.893,0,0,0,5.908-1.622,11.45,11.45,0,0,0,4.077-4.426A13.411,13.411,0,0,0,61.4-18.334a13.484,13.484,0,0,0-1.489-6.4,11.338,11.338,0,0,0-4.077-4.426,10.955,10.955,0,0,0-5.908-1.609,10.955,10.955,0,0,0-5.908,1.609,11.338,11.338,0,0,0-4.077,4.426A13.484,13.484,0,0,0,38.452-18.334ZM104.1-4.7a18.482,18.482,0,0,1-6.03,3.95A19.8,19.8,0,0,1,90.454.687a20.006,20.006,0,0,1-7.6-1.414A18.088,18.088,0,0,1,76.807-4.7a18.062,18.062,0,0,1-3.979-6.035,19.941,19.941,0,0,1-1.416-7.6,19.941,19.941,0,0,1,1.416-7.6,18.062,18.062,0,0,1,3.979-6.035,18.088,18.088,0,0,1,6.042-3.975,20.006,20.006,0,0,1,7.6-1.414,19.948,19.948,0,0,1,7.617,1.427,18.131,18.131,0,0,1,6.03,3.963l-5.1,5.1a10.887,10.887,0,0,0-3.735-2.865,11.131,11.131,0,0,0-4.81-1.036,10.955,10.955,0,0,0-5.908,1.609,11.338,11.338,0,0,0-4.077,4.426,13.484,13.484,0,0,0-1.489,6.4,13.411,13.411,0,0,0,1.489,6.389,11.45,11.45,0,0,0,4.077,4.426A10.893,10.893,0,0,0,90.454-5.9a11.131,11.131,0,0,0,4.81-1.036A10.887,10.887,0,0,0,99-9.8Zm12.109-31.92V-.045H108.74V-36.622ZM119.385-.045l14.282-36.577h8.374L156.323-.045H148.34l-3.076-8.193H130.444L127.368-.045Zm23.438-14.777q-1.465-4.292-2.612-7.681t-2.344-7q-1.2,3.609-2.356,7t-2.625,7.681ZM182.544-.045H159.5V-36.622h7.471V-6.629h15.576Zm16.357,0V-36.622h9.717l8.057,17.24q.562,1.414,1.111,2.841t1.062,2.865q.513-1.487,1.086-2.951t1.184-2.755l8.032-17.24h9.521V-.045H231.2q0-6.681.122-13.046t.513-12.753q-.635,1.683-1.331,3.341t-1.453,3.268L222.876-6.019h-8.2l-6.152-13.168q-.757-1.853-1.465-3.646t-1.392-3.6q.269,4.243.427,8.206t.22,8.327q.061,4.365.061,9.852ZM245.02-36.622h21.826v6.584H251.758v7.9h14.111v6.584H251.758v8.925h15.82V-.045H245.02ZM285.205,0H273.682V-36.573h11.523q10.791,0,16.577,4.767t5.786,13.473q0,8.73-5.786,13.534T285.205,0Zm.171-6.584q7.08,0,10.852-3.085A10.57,10.57,0,0,0,300-18.334a10.438,10.438,0,0,0-3.772-8.608q-3.772-3.048-10.852-3.048h-4.224V-6.58Zm34.058-30.042V-.045h-7.471V-36.622ZM322.607-.045,336.89-36.622h8.374L359.546-.045h-7.983l-3.076-8.193H333.667L330.591-.045Zm23.438-14.777q-1.465-4.292-2.612-7.681t-2.344-7q-1.2,3.609-2.356,7t-2.625,7.681ZM373.95-.045V-36.622h9.717l8.057,17.24q.562,1.414,1.111,2.841t1.062,2.865q.513-1.487,1.086-2.951t1.184-2.755l8.032-17.24h9.521V-.045H406.25q0-6.681.122-13.046t.513-12.753q-.635,1.683-1.331,3.341T404.1-19.236L397.925-6.019h-8.2l-6.152-13.168q-.757-1.853-1.465-3.646t-1.392-3.6q.269,4.243.427,8.206t.22,8.327q.061,4.365.061,9.852Zm42.944,0,14.282-36.577h8.374L453.833-.045H445.85l-3.076-8.193H427.954L424.878-.045Zm23.438-14.777q-1.465-4.292-2.612-7.681t-2.344-7q-1.2,3.609-2.356,7T430.4-14.822Zm16.675-21.8h12.451q6.689,0,10.449,3.036a9.993,9.993,0,0,1,3.76,8.206,10.421,10.421,0,0,1-1.965,6.352,11.374,11.374,0,0,1-5.554,3.938L484.839-.045h-8.374l-8.105-14.021h-3.882V-.045h-7.471ZM468.579-20.26a9.61,9.61,0,0,0,5.6-1.366,4.34,4.34,0,0,0,1.917-3.731,4.278,4.278,0,0,0-1.917-3.707,9.746,9.746,0,0,0-5.6-1.341h-4.1V-20.26ZM496.46-.045h-7.471V-36.622h7.471v16.314q.855-1.341,1.782-2.743t2.1-3.036l8.887-10.534h9.57L505.664-21.065,520.8-.045h-10.01L500.269-14.651l-3.809,4.536Zm27.515-36.577H545.8v6.584H530.713v7.9h14.111v6.584H530.713v8.925h15.82V-.045H523.975Zm25.732,6.584v-6.584h28.418v6.584H567.651V-.045h-7.471V-30.038Zm39.307-6.584V-.045h-7.471V-36.622Zm6.348,0h7.422l18.8,24.58v-24.58h7.471V-.045h-7.544L602.686-24.674V-.045h-7.324Zm57.129-.732a20.265,20.265,0,0,1,7.52,1.39,17.863,17.863,0,0,1,6.128,4l-5.591,4.877a9.946,9.946,0,0,0-3.6-2.719,11.423,11.423,0,0,0-4.749-.963,11.01,11.01,0,0,0-5.872,1.548,10.393,10.393,0,0,0-3.918,4.353,14.528,14.528,0,0,0-1.392,6.535,14.451,14.451,0,0,0,1.392,6.523,10.491,10.491,0,0,0,3.918,4.353A10.944,10.944,0,0,0,652.2-5.9a10.679,10.679,0,0,0,6.946-2.3,11.235,11.235,0,0,0,3.821-6.206H652.148v-6.584h17.627l.2,1.341q.073.658.122,1.341t.049,1.439a18.261,18.261,0,0,1-1.318,7.011A16.552,16.552,0,0,1,665.1-4.288a16.978,16.978,0,0,1-5.664,3.67,19.047,19.047,0,0,1-7.141,1.3A19.386,19.386,0,0,1,644.8-.74a18.2,18.2,0,0,1-5.994-3.987,18,18,0,0,1-3.955-6.035,20.027,20.027,0,0,1-1.4-7.572,19.94,19.94,0,0,1,1.416-7.6,18.063,18.063,0,0,1,3.979-6.035,18.088,18.088,0,0,1,6.042-3.975A20.006,20.006,0,0,1,652.49-37.354ZM699.463,7h-6.348A36.85,36.85,0,0,1,687.61-3.666a37.58,37.58,0,0,1-1.843-11.6,37.77,37.77,0,0,1,1.843-11.632,37.149,37.149,0,0,1,5.505-10.7h6.348a36.063,36.063,0,0,0-5.688,10.656,36.59,36.59,0,0,0-1.9,11.607,36.7,36.7,0,0,0,1.9,11.619A36.679,36.679,0,0,0,699.463,7ZM715.527-5.9A5.776,5.776,0,0,0,719.3-7.141a3.818,3.818,0,0,0,1.526-3.072,3.449,3.449,0,0,0-.989-2.487,9.626,9.626,0,0,0-2.6-1.841q-1.611-.817-3.491-1.6-1.855-.78-3.723-1.695a18.668,18.668,0,0,1-3.43-2.158,9.713,9.713,0,0,1-2.515-3,8.733,8.733,0,0,1-.952-4.219,9.3,9.3,0,0,1,1.538-5.328,10.131,10.131,0,0,1,4.321-3.548,15.467,15.467,0,0,1,6.47-1.268,23.342,23.342,0,0,1,11.279,2.926l-3.076,6.243a15.694,15.694,0,0,0-4.565-2.048,15.633,15.633,0,0,0-3.613-.536,5.955,5.955,0,0,0-3.479.914,2.827,2.827,0,0,0-1.306,2.426,3.026,3.026,0,0,0,.928,2.219,8.855,8.855,0,0,0,2.454,1.658q1.526.732,3.333,1.487,1.88.78,3.809,1.707a19,19,0,0,1,3.564,2.219,10,10,0,0,1,2.625,3.121,9.164,9.164,0,0,1,.989,4.414,10.348,10.348,0,0,1-1.685,5.84,11.5,11.5,0,0,1-4.639,4A15.206,15.206,0,0,1,715.283.687a21.266,21.266,0,0,1-7.1-1.256,23.062,23.062,0,0,1-6.519-3.548l3.516-5.95a16.726,16.726,0,0,0,3.149,2.146A18.518,18.518,0,0,0,712-6.434,12.978,12.978,0,0,0,715.527-5.9ZM733.765-.045V-36.622h9.717l8.057,17.24q.561,1.414,1.111,2.841t1.062,2.865q.513-1.487,1.086-2.951t1.184-2.755l8.032-17.24h9.521V-.045h-7.471q0-6.681.122-13.046t.513-12.753q-.635,1.683-1.331,3.341t-1.453,3.268L757.739-6.019h-8.2l-6.152-13.168q-.757-1.853-1.465-3.646t-1.392-3.6q.269,4.243.427,8.206t.22,8.327q.061,4.365.061,9.852Zm46.118,0V-36.622H789.6l8.057,17.24q.561,1.414,1.111,2.841t1.062,2.865q.513-1.487,1.086-2.951t1.184-2.755l8.032-17.24h9.521V-.045h-7.471q0-6.681.122-13.046t.513-12.753q-.635,1.683-1.331,3.341t-1.453,3.268L803.857-6.019h-8.2L789.5-19.187q-.757-1.853-1.465-3.646t-1.392-3.6q.269,4.243.427,8.206t.22,8.327q.061,4.365.061,9.852ZM824.292,7A36.679,36.679,0,0,0,829.98-3.715a36.7,36.7,0,0,0,1.9-11.619,36.59,36.59,0,0,0-1.9-11.607A36.063,36.063,0,0,0,824.292-37.6h6.348a37.149,37.149,0,0,1,5.505,10.7,37.77,37.77,0,0,1,1.843,11.632,37.58,37.58,0,0,1-1.843,11.6A36.85,36.85,0,0,1,830.64,7Z" transform="translate(-0.732 37.598)"/>
</svg>
