<svg xmlns="http://www.w3.org/2000/svg" xmlns:xlink="http://www.w3.org/1999/xlink" width="342.901" height="38" viewBox="0 0 342.901 38">
  <defs>
    <style>
      .cls-1 {
        fill: url(#linear-gradient);
      }
    </style>
    <linearGradient id="linear-gradient" x1="1.112" y1="0.5" x2="-0.016" y2="0.5" gradientUnits="objectBoundingBox">
      <stop offset="0" stop-color="#fff"/>
      <stop offset="1" stop-color="#f274cc" stop-opacity="0.302"/>
    </linearGradient>
  </defs>
  <path id="ui-ux" class="cls-1" d="M10.628-36.623v20.462a11.544,11.544,0,0,0,2.241,7.429,7.232,7.232,0,0,0,5.944,2.8,7.232,7.232,0,0,0,5.944-2.8A11.544,11.544,0,0,0,27-16.161V-36.623h7.454v20.462A19.029,19.029,0,0,1,32.5-7.319a14.333,14.333,0,0,1-5.456,5.871A15.754,15.754,0,0,1,18.812.646a15.77,15.77,0,0,1-8.221-2.095A14.308,14.308,0,0,1,5.123-7.319a19.029,19.029,0,0,1-1.949-8.842V-36.623Zm37.61,0V-.084H40.784V-36.623Zm25.212-.487L57.494.4H51.161L67.116-37.11Zm10.377.487v20.462a11.544,11.544,0,0,0,2.241,7.429,7.232,7.232,0,0,0,5.944,2.8,7.232,7.232,0,0,0,5.944-2.8,11.544,11.544,0,0,0,2.241-7.429V-36.623h7.454v20.462A19.029,19.029,0,0,1,105.7-7.319a14.333,14.333,0,0,1-5.456,5.871A15.754,15.754,0,0,1,92.011.646,15.77,15.77,0,0,1,83.79-1.448a14.308,14.308,0,0,1-5.469-5.871,19.029,19.029,0,0,1-1.949-8.842V-36.623ZM110.816-.084l14.4-19.1L112.034-36.623h9.013l8.915,12.35,8.915-12.35h9.013L134.712-19.182l14.4,19.1H140.1L129.573-14.042,119.829-.084Zm64.162.049h-11.5V-36.574h11.5q10.767,0,16.54,4.762t5.773,13.458q0,8.721-5.773,13.519T174.978-.036Zm.171-6.577q7.064,0,10.828-3.081a10.565,10.565,0,0,0,3.763-8.66,10.432,10.432,0,0,0-3.763-8.6Q182.212-30,175.148-30h-4.214V-6.612Zm26.527-30.01h21.777v6.577H208.4v7.892h14.079v6.577H208.4v8.915h15.785V-.084H201.675ZM241.429-5.93a5.758,5.758,0,0,0,3.763-1.242,3.816,3.816,0,0,0,1.522-3.069,3.447,3.447,0,0,0-.987-2.485,9.6,9.6,0,0,0-2.594-1.839q-1.608-.816-3.483-1.6-1.851-.779-3.715-1.693a18.622,18.622,0,0,1-3.422-2.156,9.7,9.7,0,0,1-2.509-3,8.732,8.732,0,0,1-.95-4.214,9.3,9.3,0,0,1,1.535-5.322,10.11,10.11,0,0,1,4.312-3.544,15.416,15.416,0,0,1,6.455-1.267A23.267,23.267,0,0,1,252.61-34.43l-3.069,6.236a15.649,15.649,0,0,0-4.555-2.046,15.58,15.58,0,0,0-3.605-.536,5.936,5.936,0,0,0-3.471.913,2.825,2.825,0,0,0-1.3,2.424,3.024,3.024,0,0,0,.926,2.217,8.835,8.835,0,0,0,2.448,1.656q1.522.731,3.325,1.486,1.876.779,3.8,1.705a18.953,18.953,0,0,1,3.556,2.217,9.986,9.986,0,0,1,2.619,3.118,9.163,9.163,0,0,1,.987,4.409A10.346,10.346,0,0,1,252.585-4.8,11.479,11.479,0,0,1,247.957-.8,15.156,15.156,0,0,1,241.185.646,21.2,21.2,0,0,1,234.1-.608a23,23,0,0,1-6.5-3.544L231.1-10.1a16.689,16.689,0,0,0,3.142,2.144,18.463,18.463,0,0,0,3.666,1.486A12.935,12.935,0,0,0,241.429-5.93Zm25.65-30.692V-.084h-7.454V-36.623Zm23.385-.731a20.2,20.2,0,0,1,7.5,1.388,17.821,17.821,0,0,1,6.114,3.995L298.5-27.1a9.924,9.924,0,0,0-3.593-2.716,11.385,11.385,0,0,0-4.738-.962,10.975,10.975,0,0,0-5.858,1.547,10.377,10.377,0,0,0-3.91,4.348,14.528,14.528,0,0,0-1.388,6.528,14.45,14.45,0,0,0,1.388,6.516,10.475,10.475,0,0,0,3.91,4.348,10.91,10.91,0,0,0,5.858,1.559,10.647,10.647,0,0,0,6.93-2.3,11.225,11.225,0,0,0,3.812-6.2H290.123v-6.577H307.71l.195,1.34q.073.658.122,1.34t.049,1.437a18.261,18.261,0,0,1-1.315,7,16.535,16.535,0,0,1-3.715,5.566,16.937,16.937,0,0,1-5.651,3.666,18.984,18.984,0,0,1-7.125,1.3A19.322,19.322,0,0,1,282.79-.779a18.158,18.158,0,0,1-5.98-3.983,17.983,17.983,0,0,1-3.946-6.029,20.026,20.026,0,0,1-1.4-7.563,19.941,19.941,0,0,1,1.413-7.588,18.045,18.045,0,0,1,3.971-6.029,18.045,18.045,0,0,1,6.029-3.971A19.94,19.94,0,0,1,290.464-37.354Zm22,.731h7.405l18.756,24.554V-36.623h7.454V-.084h-7.527l-18.781-24.6v24.6H312.46Z" transform="translate(-3.174 37.354)"/>
</svg>
