<svg xmlns="http://www.w3.org/2000/svg" xmlns:xlink="http://www.w3.org/1999/xlink" width="540.38" height="38" viewBox="0 0 540.38 38">
  <defs>
    <style>
      .cls-1 {
        fill: url(#linear-gradient);
      }
    </style>
    <linearGradient id="linear-gradient" x1="1.199" y1="10.606" x2="0" y2="10.668" gradientUnits="objectBoundingBox">
      <stop offset="0" stop-color="#fff"/>
      <stop offset="1" stop-color="#5966fd" stop-opacity="0.302"/>
    </linearGradient>
  </defs>
  <path id="video" class="cls-1" d="M.732-36.623H8.649q1.437,3.508,2.667,6.37t2.363,5.542q1.133,2.679,2.3,5.566T18.417-12.7q.341.974.633,1.863T19.586-9.1q.244-.853.536-1.742t.633-1.863q1.291-3.556,2.448-6.443t2.29-5.566q1.133-2.679,2.375-5.542t2.655-6.37H38.44L23.508-.084H15.664Zm49.059,0V-.084H42.338V-36.623ZM67.622-.036h-11.5V-36.574h11.5q10.767,0,16.54,4.762t5.773,13.458q0,8.721-5.773,13.519T67.622-.036Zm.171-6.577q7.064,0,10.828-3.081a10.565,10.565,0,0,0,3.763-8.66,10.432,10.432,0,0,0-3.763-8.6Q74.857-30,67.793-30H63.579V-6.612ZM94.32-36.623H116.1v6.577H101.043v7.892h14.079v6.577H101.043v8.915h15.785V-.084H94.32Zm26.405,18.269a19.94,19.94,0,0,1,1.413-7.588,18.045,18.045,0,0,1,3.971-6.029,18.045,18.045,0,0,1,6.029-3.971,19.94,19.94,0,0,1,7.588-1.413,19.94,19.94,0,0,1,7.588,1.413,18.045,18.045,0,0,1,6.029,3.971,18.045,18.045,0,0,1,3.971,6.029,19.94,19.94,0,0,1,1.413,7.588,19.94,19.94,0,0,1-1.413,7.588,18.045,18.045,0,0,1-3.971,6.029,18.045,18.045,0,0,1-6.029,3.971A19.94,19.94,0,0,1,139.725.646a19.94,19.94,0,0,1-7.588-1.413,18.045,18.045,0,0,1-6.029-3.971,18.045,18.045,0,0,1-3.971-6.029A19.94,19.94,0,0,1,120.725-18.354Zm7.551,0a13.41,13.41,0,0,0,1.486,6.382A11.433,11.433,0,0,0,133.83-7.55a10.858,10.858,0,0,0,5.895,1.62,10.858,10.858,0,0,0,5.895-1.62,11.433,11.433,0,0,0,4.068-4.421,13.41,13.41,0,0,0,1.486-6.382,13.482,13.482,0,0,0-1.486-6.394,11.321,11.321,0,0,0-4.068-4.421,10.92,10.92,0,0,0-5.895-1.608,10.92,10.92,0,0,0-5.895,1.608,11.321,11.321,0,0,0-4.068,4.421A13.482,13.482,0,0,0,128.276-18.354ZM204.982-4.737a18.439,18.439,0,0,1-6.017,3.946,19.734,19.734,0,0,1-7.6,1.437,19.94,19.94,0,0,1-7.588-1.413,18.045,18.045,0,0,1-6.029-3.971,18.045,18.045,0,0,1-3.971-6.029,19.94,19.94,0,0,1-1.413-7.588,19.94,19.94,0,0,1,1.413-7.588,18.045,18.045,0,0,1,3.971-6.029,18.045,18.045,0,0,1,6.029-3.971,19.94,19.94,0,0,1,7.588-1.413,19.882,19.882,0,0,1,7.6,1.425,18.088,18.088,0,0,1,6.017,3.958l-5.091,5.091a10.864,10.864,0,0,0-3.727-2.862,11.1,11.1,0,0,0-4.8-1.035,10.92,10.92,0,0,0-5.895,1.608,11.321,11.321,0,0,0-4.068,4.421,13.482,13.482,0,0,0-1.486,6.394,13.41,13.41,0,0,0,1.486,6.382,11.433,11.433,0,0,0,4.068,4.421,10.858,10.858,0,0,0,5.895,1.62,11.1,11.1,0,0,0,4.8-1.035,10.864,10.864,0,0,0,3.727-2.862Zm2.923-13.617a19.94,19.94,0,0,1,1.413-7.588,18.045,18.045,0,0,1,3.971-6.029,18.045,18.045,0,0,1,6.029-3.971,19.94,19.94,0,0,1,7.588-1.413,19.94,19.94,0,0,1,7.588,1.413,18.045,18.045,0,0,1,6.029,3.971,18.045,18.045,0,0,1,3.971,6.029,19.94,19.94,0,0,1,1.413,7.588,19.94,19.94,0,0,1-1.413,7.588,18.045,18.045,0,0,1-3.971,6.029,18.045,18.045,0,0,1-6.029,3.971A19.94,19.94,0,0,1,226.906.646a19.94,19.94,0,0,1-7.588-1.413,18.045,18.045,0,0,1-6.029-3.971,18.045,18.045,0,0,1-3.971-6.029A19.94,19.94,0,0,1,207.906-18.354Zm7.551,0a13.41,13.41,0,0,0,1.486,6.382,11.433,11.433,0,0,0,4.068,4.421,10.858,10.858,0,0,0,5.895,1.62A10.858,10.858,0,0,0,232.8-7.55a11.433,11.433,0,0,0,4.068-4.421,13.41,13.41,0,0,0,1.486-6.382,13.482,13.482,0,0,0-1.486-6.394,11.321,11.321,0,0,0-4.068-4.421,10.92,10.92,0,0,0-5.895-1.608,10.92,10.92,0,0,0-5.895,1.608,11.321,11.321,0,0,0-4.068,4.421A13.482,13.482,0,0,0,215.457-18.354ZM250.29-.084V-36.623h9.695L268.023-19.4q.56,1.413,1.108,2.838t1.06,2.862q.512-1.486,1.084-2.947t1.181-2.753l8.014-17.222h9.5V-.084h-7.454q0-6.674.122-13.032t.512-12.74q-.633,1.681-1.328,3.337t-1.449,3.264l-6.163,13.2h-8.185l-6.138-13.154q-.755-1.851-1.462-3.642t-1.388-3.593q.268,4.238.426,8.2t.219,8.319q.061,4.36.061,9.841Zm46.014,0V-36.623H306L314.038-19.4q.56,1.413,1.108,2.838t1.06,2.862q.512-1.486,1.084-2.947t1.181-2.753l8.014-17.222h9.5V-.084h-7.454q0-6.674.122-13.032t.512-12.74q-.633,1.681-1.328,3.337t-1.449,3.264l-6.163,13.2H312.04L305.9-19.206q-.755-1.851-1.462-3.642t-1.388-3.593q.268,4.238.426,8.2t.219,8.319q.061,4.36.061,9.841Zm46.014-36.538H364.1v6.577H349.041v7.892h14.079v6.577H349.041v8.915h15.785V-.084H342.318Zm28.6,0h12.423q6.674,0,10.426,3.033a9.987,9.987,0,0,1,3.751,8.2,10.418,10.418,0,0,1-1.961,6.346,11.349,11.349,0,0,1-5.542,3.934L398.685-.084H390.33l-8.087-14.006H378.37V-.084h-7.454Zm11.546,16.345a9.58,9.58,0,0,0,5.59-1.364,4.337,4.337,0,0,0,1.912-3.727,4.275,4.275,0,0,0-1.912-3.7,9.715,9.715,0,0,0-5.59-1.34H378.37v10.133ZM433.494-4.737a18.439,18.439,0,0,1-6.017,3.946,19.734,19.734,0,0,1-7.6,1.437,19.94,19.94,0,0,1-7.588-1.413,18.045,18.045,0,0,1-6.029-3.971,18.045,18.045,0,0,1-3.97-6.029,19.94,19.94,0,0,1-1.413-7.588,19.94,19.94,0,0,1,1.413-7.588,18.045,18.045,0,0,1,3.97-6.029,18.045,18.045,0,0,1,6.029-3.971,19.94,19.94,0,0,1,7.588-1.413,19.882,19.882,0,0,1,7.6,1.425,18.088,18.088,0,0,1,6.017,3.958L428.4-26.879a10.864,10.864,0,0,0-3.727-2.862,11.1,11.1,0,0,0-4.8-1.035,10.92,10.92,0,0,0-5.895,1.608,11.321,11.321,0,0,0-4.068,4.421,13.482,13.482,0,0,0-1.486,6.394,13.41,13.41,0,0,0,1.486,6.382,11.433,11.433,0,0,0,4.068,4.421,10.858,10.858,0,0,0,5.895,1.62,11.1,11.1,0,0,0,4.8-1.035A10.864,10.864,0,0,0,428.4-9.828Zm12.082-31.886V-.084h-7.454V-36.623ZM448.743-.084l14.25-36.538h8.355L485.6-.084h-7.965l-3.069-8.185H459.777L456.708-.084Zm23.385-14.762q-1.462-4.287-2.606-7.673t-2.338-6.991q-1.194,3.605-2.351,6.991t-2.619,7.673ZM511.759-.084H488.764V-36.623h7.454V-6.661h15.541ZM528.275-5.93a5.759,5.759,0,0,0,3.763-1.242,3.816,3.816,0,0,0,1.522-3.069,3.447,3.447,0,0,0-.987-2.485,9.605,9.605,0,0,0-2.594-1.839q-1.608-.816-3.483-1.6-1.851-.779-3.715-1.693a18.622,18.622,0,0,1-3.422-2.156,9.7,9.7,0,0,1-2.509-3,8.732,8.732,0,0,1-.95-4.214,9.3,9.3,0,0,1,1.535-5.322,10.11,10.11,0,0,1,4.312-3.544,15.416,15.416,0,0,1,6.455-1.267,23.267,23.267,0,0,1,11.254,2.923l-3.069,6.236a15.649,15.649,0,0,0-4.555-2.046,15.58,15.58,0,0,0-3.605-.536,5.936,5.936,0,0,0-3.471.913,2.825,2.825,0,0,0-1.3,2.424,3.024,3.024,0,0,0,.926,2.217,8.835,8.835,0,0,0,2.448,1.656q1.522.731,3.325,1.486,1.876.779,3.8,1.705a18.954,18.954,0,0,1,3.556,2.217,9.984,9.984,0,0,1,2.619,3.118,9.163,9.163,0,0,1,.987,4.409A10.346,10.346,0,0,1,539.431-4.8,11.479,11.479,0,0,1,534.8-.8,15.156,15.156,0,0,1,528.031.646a21.2,21.2,0,0,1-7.088-1.254,23,23,0,0,1-6.5-3.544l3.508-5.944a16.687,16.687,0,0,0,3.142,2.144,18.464,18.464,0,0,0,3.666,1.486A12.935,12.935,0,0,0,528.275-5.93Z" transform="translate(-0.732 37.354)"/>
</svg>
