<svg xmlns="http://www.w3.org/2000/svg" xmlns:xlink="http://www.w3.org/1999/xlink" width="222.041" height="58.852" viewBox="0 0 222.041 58.852">
  <defs>
    <style>
      .cls-1 {
        fill: url(#linear-gradient);
      }
    </style>
    <linearGradient id="linear-gradient" x1="1.065" x2="0.037" gradientUnits="objectBoundingBox">
      <stop offset="0" stop-color="#fff"/>
      <stop offset="1" stop-color="#5966fd" stop-opacity="0.302"/>
    </linearGradient>
  </defs>
  <path id="video" class="cls-1" d="M.439-21.973H5.2q.864,2.109,1.6,3.831T8.225-14.81q.681,1.611,1.384,3.347t1.465,3.875q.205.586.381,1.121t.322,1.047q.146-.513.322-1.047t.381-1.121q.776-2.139,1.472-3.875T15.33-14.81q.681-1.611,1.428-3.333t1.6-3.831h4.761L14.136,0H9.419Zm29.5,0V0H25.459V-21.973Zm10.723,22H33.75V-21.943h6.914q6.475,0,9.946,2.864a9.9,9.9,0,0,1,3.472,8.093,9.984,9.984,0,0,1-3.472,8.13Q47.139.029,40.664.029Zm.1-3.955q4.248,0,6.511-1.853a6.353,6.353,0,0,0,2.263-5.208,6.273,6.273,0,0,0-2.263-5.171q-2.263-1.831-6.511-1.831H38.232V-3.926ZM56.719-21.973h13.1v3.955H60.762v4.746h8.467v3.955H60.762v5.361h9.492V0H56.719ZM72.6-10.986a11.991,11.991,0,0,1,.85-4.563,10.851,10.851,0,0,1,2.388-3.625,10.851,10.851,0,0,1,3.625-2.388,11.991,11.991,0,0,1,4.563-.85,11.991,11.991,0,0,1,4.563.85,10.851,10.851,0,0,1,3.625,2.388A10.851,10.851,0,0,1,94.6-15.549a11.991,11.991,0,0,1,.85,4.563,11.991,11.991,0,0,1-.85,4.563A10.851,10.851,0,0,1,92.212-2.8,10.851,10.851,0,0,1,88.586-.41a11.991,11.991,0,0,1-4.563.85A11.991,11.991,0,0,1,79.46-.41,10.851,10.851,0,0,1,75.835-2.8a10.851,10.851,0,0,1-2.388-3.625A11.991,11.991,0,0,1,72.6-10.986Zm4.541,0a8.064,8.064,0,0,0,.894,3.838A6.875,6.875,0,0,0,80.479-4.49a6.53,6.53,0,0,0,3.545.974,6.53,6.53,0,0,0,3.545-.974,6.875,6.875,0,0,0,2.446-2.659,8.064,8.064,0,0,0,.894-3.838,8.108,8.108,0,0,0-.894-3.845,6.808,6.808,0,0,0-2.446-2.659,6.567,6.567,0,0,0-3.545-.967,6.567,6.567,0,0,0-3.545.967,6.808,6.808,0,0,0-2.446,2.659A8.108,8.108,0,0,0,77.139-10.986ZM20.347,33.2a11.088,11.088,0,0,1-3.618,2.373,11.867,11.867,0,0,1-4.57.864A11.991,11.991,0,0,1,7.6,35.59a10.766,10.766,0,0,1-6.013-6.013,11.991,11.991,0,0,1-.85-4.563,11.991,11.991,0,0,1,.85-4.563A10.766,10.766,0,0,1,7.6,14.438a11.991,11.991,0,0,1,4.563-.85,11.956,11.956,0,0,1,4.57.857,10.877,10.877,0,0,1,3.618,2.38l-3.062,3.062a6.533,6.533,0,0,0-2.241-1.721,6.672,6.672,0,0,0-2.886-.623,6.567,6.567,0,0,0-3.545.967,6.808,6.808,0,0,0-2.446,2.659,8.108,8.108,0,0,0-.894,3.845,8.064,8.064,0,0,0,.894,3.838A6.875,6.875,0,0,0,8.613,31.51a6.53,6.53,0,0,0,3.545.974,6.672,6.672,0,0,0,2.886-.623,6.533,6.533,0,0,0,2.241-1.721ZM22.1,25.014a11.991,11.991,0,0,1,.85-4.563,10.766,10.766,0,0,1,6.013-6.013,12.678,12.678,0,0,1,9.126,0,10.766,10.766,0,0,1,6.013,6.013,11.991,11.991,0,0,1,.85,4.563,11.991,11.991,0,0,1-.85,4.563,10.766,10.766,0,0,1-6.013,6.013,12.678,12.678,0,0,1-9.126,0,10.766,10.766,0,0,1-6.013-6.013A11.991,11.991,0,0,1,22.1,25.014Zm4.541,0a8.064,8.064,0,0,0,.894,3.838,6.875,6.875,0,0,0,2.446,2.659,6.937,6.937,0,0,0,7.09,0,6.875,6.875,0,0,0,2.446-2.659,8.064,8.064,0,0,0,.894-3.838,8.108,8.108,0,0,0-.894-3.845,6.808,6.808,0,0,0-2.446-2.659,6.982,6.982,0,0,0-7.09,0,6.808,6.808,0,0,0-2.446,2.659A8.108,8.108,0,0,0,26.646,25.014ZM47.593,36V14.027h5.83l4.834,10.356q.337.85.667,1.707t.637,1.721q.308-.894.652-1.772t.71-1.655l4.819-10.356h5.713V36H66.973q0-4.014.073-7.837t.308-7.661q-.381,1.011-.8,2.007t-.872,1.963l-3.706,7.939H57.056L53.364,24.5q-.454-1.113-.879-2.19T51.65,20.15q.161,2.549.256,4.929t.132,5q.037,2.622.037,5.918Zm27.671,0V14.027h5.83l4.834,10.356q.337.85.667,1.707t.637,1.721q.308-.894.652-1.772t.71-1.655l4.819-10.356h5.713V36H94.644q0-4.014.073-7.837t.308-7.661q-.381,1.011-.8,2.007t-.872,1.963l-3.706,7.939H84.727L81.035,24.5q-.454-1.113-.879-2.19t-.835-2.161q.161,2.549.256,4.929t.132,5q.037,2.622.037,5.918Zm27.671-21.973h13.1v3.955h-9.053v4.746h8.467v3.955h-8.467v5.361h9.492V36H102.935Zm17.2,0H127.6a9.715,9.715,0,0,1,6.27,1.824,6.006,6.006,0,0,1,2.256,4.929,6.265,6.265,0,0,1-1.179,3.816,6.825,6.825,0,0,1-3.333,2.366L136.831,36h-5.024l-4.863-8.423h-2.329V36h-4.482Zm6.943,9.829a5.761,5.761,0,0,0,3.362-.82,2.608,2.608,0,0,0,1.15-2.241,2.571,2.571,0,0,0-1.15-2.227,5.842,5.842,0,0,0-3.362-.806h-2.461v6.094ZM157.764,33.2a11.088,11.088,0,0,1-3.618,2.373,11.867,11.867,0,0,1-4.57.864,11.991,11.991,0,0,1-4.563-.85A10.766,10.766,0,0,1,139,29.577a11.991,11.991,0,0,1-.85-4.563,11.991,11.991,0,0,1,.85-4.563,10.766,10.766,0,0,1,6.013-6.013,12.647,12.647,0,0,1,9.133.007,10.877,10.877,0,0,1,3.618,2.38L154.7,19.887a6.533,6.533,0,0,0-2.241-1.721,6.672,6.672,0,0,0-2.886-.623,6.567,6.567,0,0,0-3.545.967,6.808,6.808,0,0,0-2.446,2.659,8.108,8.108,0,0,0-.894,3.845,8.064,8.064,0,0,0,.894,3.838,6.875,6.875,0,0,0,2.446,2.659,6.53,6.53,0,0,0,3.545.974,6.672,6.672,0,0,0,2.886-.623,6.533,6.533,0,0,0,2.241-1.721Zm7.266-19.175V36h-4.482V14.027ZM166.934,36,175.5,14.027h5.024L189.1,36h-4.79l-1.846-4.922h-8.892L171.724,36ZM181,27.123q-.879-2.578-1.567-4.614t-1.406-4.2q-.718,2.168-1.414,4.2t-1.575,4.614ZM204.829,36H191V14.027h4.482V32.045h9.346Zm9.932-3.516a3.463,3.463,0,0,0,2.263-.747,2.3,2.3,0,0,0,.916-1.846,2.073,2.073,0,0,0-.593-1.494,5.776,5.776,0,0,0-1.56-1.106q-.967-.491-2.095-.959t-2.234-1.018a11.2,11.2,0,0,1-2.058-1.3,5.834,5.834,0,0,1-1.509-1.8,5.251,5.251,0,0,1-.571-2.534,5.591,5.591,0,0,1,.923-3.2,6.08,6.08,0,0,1,2.593-2.131,9.271,9.271,0,0,1,3.882-.762,13.992,13.992,0,0,1,6.768,1.758l-1.846,3.75a9.49,9.49,0,0,0-4.907-1.553,3.57,3.57,0,0,0-2.087.549,1.7,1.7,0,0,0-.784,1.458,1.819,1.819,0,0,0,.557,1.333,5.313,5.313,0,0,0,1.472,1q.916.439,2,.894,1.128.469,2.285,1.025a11.4,11.4,0,0,1,2.139,1.333,6,6,0,0,1,1.575,1.875,5.51,5.51,0,0,1,.593,2.651,6.222,6.222,0,0,1-1.011,3.508,6.9,6.9,0,0,1-2.783,2.4,9.114,9.114,0,0,1-4.072.872,12.746,12.746,0,0,1-4.263-.754,13.832,13.832,0,0,1-3.911-2.131l2.109-3.574a10.036,10.036,0,0,0,1.89,1.289,11.1,11.1,0,0,0,2.2.894A7.778,7.778,0,0,0,214.761,32.484Z" transform="translate(-0.439 22.412)"/>
</svg>
