<svg xmlns="http://www.w3.org/2000/svg" xmlns:xlink="http://www.w3.org/1999/xlink" width="499.87" height="38" viewBox="0 0 499.87 38">
  <defs>
    <style>
      .cls-1 {
        fill: url(#linear-gradient);
      }
    </style>
    <linearGradient id="linear-gradient" x1="1.06" y1="10.676" x2="0" y2="10.668" gradientUnits="objectBoundingBox">
      <stop offset="0" stop-color="#fff"/>
      <stop offset="1" stop-color="#5966fd" stop-opacity="0.302"/>
    </linearGradient>
  </defs>
  <path id="web-development" class="cls-1" d="M11.7-.084,1.221-36.623H8.845l6.114,21.314q.755,2.558,1.34,4.969L23.85-36.623h7.7l7.137,24.895q.219-.853.475-1.742t.524-1.863l6.09-21.29H53.4L42.9-.084H35.275L27.7-26.514,20.1-.084ZM57.782-36.623H79.559v6.577H64.505v7.892H78.585v6.577H64.505v8.915H80.29V-.084H57.782ZM86.38-.084V-36.623H99.728q5.871,0,9.122,2.375a8.02,8.02,0,0,1,3.252,6.906,8.593,8.593,0,0,1-1.364,4.921,8.744,8.744,0,0,1-3.9,3.118,10.018,10.018,0,0,1,4.945,3.4,9.239,9.239,0,0,1,1.729,5.712,8.771,8.771,0,0,1-3.508,7.515Q106.5-.084,100.191-.084ZM99.436-30.046h-5.6v8.038h5.6a6.053,6.053,0,0,0,3.776-1.035,3.545,3.545,0,0,0,1.34-2.984,3.545,3.545,0,0,0-1.34-2.984A6.053,6.053,0,0,0,99.436-30.046Zm-5.6,23.385h6.09a7.118,7.118,0,0,0,4.458-1.23,4.22,4.22,0,0,0,1.583-3.544,4.153,4.153,0,0,0-1.583-3.52,7.223,7.223,0,0,0-4.458-1.206h-6.09ZM141.212-.036h-11.5V-36.574h11.5q10.767,0,16.54,4.762t5.773,13.458q0,8.721-5.773,13.519T141.212-.036Zm.171-6.577q7.064,0,10.828-3.081a10.565,10.565,0,0,0,3.763-8.66,10.432,10.432,0,0,0-3.763-8.6Q148.446-30,141.382-30h-4.214V-6.612Zm26.527-30.01h21.777v6.577H174.632v7.892h14.079v6.577H174.632v8.915h15.785V-.084H167.909Zm25.674,0H201.5q1.437,3.508,2.667,6.37t2.363,5.542q1.133,2.679,2.3,5.566t2.436,6.443q.341.974.633,1.863t.536,1.742q.244-.853.536-1.742t.633-1.863q1.291-3.556,2.448-6.443t2.29-5.566q1.133-2.679,2.375-5.542t2.655-6.37h7.917L216.359-.084h-7.844Zm41.605,0h21.777v6.577H241.912v7.892h14.079v6.577H241.912v8.915H257.7V-.084H235.189ZM286.781-.084H263.786V-36.623h7.454V-6.661h15.541Zm.974-18.269a19.941,19.941,0,0,1,1.413-7.588,18.046,18.046,0,0,1,3.971-6.029,18.045,18.045,0,0,1,6.029-3.971,19.94,19.94,0,0,1,7.588-1.413,19.94,19.94,0,0,1,7.588,1.413,18.045,18.045,0,0,1,6.029,3.971,18.045,18.045,0,0,1,3.971,6.029,19.941,19.941,0,0,1,1.413,7.588,19.941,19.941,0,0,1-1.413,7.588,18.045,18.045,0,0,1-3.971,6.029,18.045,18.045,0,0,1-6.029,3.971A19.94,19.94,0,0,1,306.755.646a19.94,19.94,0,0,1-7.588-1.413,18.045,18.045,0,0,1-6.029-3.971,18.045,18.045,0,0,1-3.971-6.029A19.941,19.941,0,0,1,287.755-18.354Zm7.551,0a13.41,13.41,0,0,0,1.486,6.382A11.433,11.433,0,0,0,300.86-7.55a10.858,10.858,0,0,0,5.895,1.62,10.858,10.858,0,0,0,5.895-1.62,11.433,11.433,0,0,0,4.068-4.421,13.41,13.41,0,0,0,1.486-6.382,13.483,13.483,0,0,0-1.486-6.394,11.321,11.321,0,0,0-4.068-4.421,10.92,10.92,0,0,0-5.895-1.608,10.92,10.92,0,0,0-5.895,1.608,11.321,11.321,0,0,0-4.068,4.421A13.483,13.483,0,0,0,295.307-18.354ZM330.14-.084V-36.623h12.618q6.8,0,10.621,3.228a10.86,10.86,0,0,1,3.824,8.757,11.587,11.587,0,0,1-1.729,6.382,11.331,11.331,0,0,1-4.957,4.19,18.446,18.446,0,0,1-7.758,1.486h-5.188v12.5ZM342-30.411h-4.433v11.644H342a8.586,8.586,0,0,0,5.7-1.656,5.263,5.263,0,0,0,1.949-4.19,5.193,5.193,0,0,0-1.949-4.165A8.675,8.675,0,0,0,342-30.411ZM361.1-.084V-36.623H370.8L378.834-19.4q.56,1.413,1.108,2.838T381-13.7q.512-1.486,1.084-2.947t1.181-2.753l8.014-17.222h9.5V-.084h-7.454q0-6.674.122-13.032t.512-12.74q-.633,1.681-1.328,3.337t-1.449,3.264l-6.163,13.2h-8.185L370.7-19.206q-.755-1.851-1.462-3.642t-1.388-3.593q.268,4.238.426,8.2t.219,8.319q.061,4.36.061,9.841Zm46.014-36.538h21.777v6.577H413.837v7.892h14.079v6.577H413.837v8.915h15.785V-.084H407.114Zm28.6,0h7.405l18.756,24.554V-36.623h7.454V-.084H461.8l-18.781-24.6v24.6h-7.308Zm37.026,6.577v-6.577h28.354v6.577h-10.45V-.084h-7.454V-30.046Z" transform="translate(-1.221 37.354)"/>
</svg>
