<svg width="148" height="147" viewBox="0 0 148 147" fill="none" xmlns="http://www.w3.org/2000/svg">
<path d="M127.05 33.1471C131.037 33.1471 134.269 29.9209 134.269 25.9412C134.269 21.9615 131.037 18.7354 127.05 18.7354C123.063 18.7354 119.832 21.9615 119.832 25.9412C119.832 29.9209 123.063 33.1471 127.05 33.1471Z" fill="#5966FD"/>
<path d="M37.5376 142.676C41.5244 142.676 44.7563 139.45 44.7563 135.471C44.7563 131.491 41.5244 128.265 37.5376 128.265C33.5508 128.265 30.3188 131.491 30.3188 135.471C30.3188 139.45 33.5508 142.676 37.5376 142.676Z" fill="#5966FD"/>
<path d="M147.224 72.0632C146.96 57.4361 142.303 43.2251 133.855 31.2709L133.803 31.3286C135.044 29.8104 135.725 27.9133 135.734 25.954C135.741 24.4126 135.334 22.8977 134.554 21.5674C133.774 20.2372 132.65 19.1404 131.301 18.3918C129.951 17.6432 128.425 17.2702 126.881 17.3118C125.338 17.3534 123.834 17.8081 122.527 18.6283H122.544C115.132 12.0309 106.459 6.99947 97.0476 3.83722C87.6359 0.67497 77.6803 -0.552674 67.7807 0.228272C57.8811 1.00922 48.2423 3.78258 39.4449 8.38128C30.6476 12.98 22.874 19.3088 16.5921 26.9865C10.3103 34.6643 5.65037 43.532 2.89309 53.0554C0.135811 62.5788 -0.661791 72.5609 0.54841 82.4002C1.75861 92.2395 4.9516 101.732 9.93488 110.307C14.9182 118.882 21.5886 126.361 29.5445 132.293C28.7683 134.215 28.7125 136.352 29.3874 138.311C30.0624 140.271 31.4227 141.922 33.2187 142.96C35.0147 143.999 37.1256 144.357 39.1643 143.967C41.2029 143.577 43.0323 142.466 44.3165 140.838L44.2904 140.875C55.3775 145.703 67.4861 147.727 79.5438 146.768C91.6015 145.809 103.236 141.896 113.417 135.376C123.598 128.856 132.012 119.93 137.912 109.389C143.812 98.8486 147.018 87.0178 147.244 74.945L147.224 72.0632ZM127.074 20.1903C128.216 20.1903 129.332 20.5283 130.281 21.1616C131.231 21.795 131.971 22.6951 132.408 23.7483C132.845 24.8015 132.959 25.9604 132.736 27.0784C132.514 28.1964 131.964 29.2234 131.156 30.0295C130.349 30.8355 129.32 31.3845 128.2 31.6069C127.08 31.8293 125.919 31.7151 124.864 31.2789C123.809 30.8426 122.907 30.1039 122.273 29.1561C121.638 28.2082 121.3 27.0939 121.3 25.954C121.3 24.4253 121.908 22.9593 122.991 21.8784C124.074 20.7975 125.542 20.1903 127.074 20.1903ZM37.5815 141.227C36.4395 141.227 35.3232 140.889 34.3738 140.256C33.4243 139.622 32.6843 138.722 32.2473 137.669C31.8103 136.616 31.6959 135.457 31.9187 134.339C32.1415 133.221 32.6914 132.194 33.4988 131.388C34.3063 130.582 35.335 130.033 36.455 129.811C37.575 129.588 38.736 129.702 39.791 130.138C40.846 130.575 41.7478 131.313 42.3822 132.261C43.0166 133.209 43.3552 134.323 43.3552 135.463C43.3552 136.992 42.7468 138.458 41.664 139.539C40.5812 140.62 39.1127 141.227 37.5815 141.227ZM73.667 144.109C64.0516 144.115 54.5369 142.154 45.7108 138.345V138.363C46.4041 136.465 46.4063 134.384 45.7167 132.485C45.0272 130.586 43.6902 128.99 41.9399 127.977C40.1896 126.964 38.1378 126.598 36.1442 126.943C34.1507 127.289 32.3426 128.324 31.037 129.867L31.0745 129.821C23.4822 124.105 17.1232 116.918 12.3783 108.692C7.63342 100.465 4.60012 91.3669 3.46001 81.9424C2.3199 72.518 3.09645 62.9607 5.74311 53.8429C8.38976 44.725 12.8522 36.234 18.8631 28.8781C24.8741 21.5222 32.3101 15.4527 40.7259 11.0328C49.1418 6.61297 58.3644 3.93372 67.8419 3.15541C77.3193 2.37711 86.8566 3.51575 95.8829 6.5032C104.909 9.49066 113.239 14.2655 120.373 20.5419L120.405 20.5102C119.128 22.0386 118.423 23.9634 118.413 25.954C118.408 27.5054 118.822 29.0294 119.612 30.3653C120.403 31.7011 121.54 32.7991 122.903 33.5435C124.267 34.2878 125.807 34.6509 127.36 34.5943C128.913 34.5377 130.422 34.0636 131.727 33.2219H131.713C139.1 43.8042 143.44 56.2058 144.261 69.0782C145.082 81.9507 142.351 94.8014 136.367 106.233C130.383 117.665 121.374 127.24 110.319 133.918C99.2648 140.596 86.588 144.121 73.667 144.109Z" fill="white"/>
</svg>
