<svg width="91" height="91" viewBox="0 0 91 91" fill="none" xmlns="http://www.w3.org/2000/svg">
<path d="M15.3127 19.5587C17.7048 19.5587 19.6439 17.623 19.6439 15.2352C19.6439 12.8473 17.7048 10.9116 15.3127 10.9116C12.9206 10.9116 10.9814 12.8473 10.9814 15.2352C10.9814 17.623 12.9206 19.5587 15.3127 19.5587Z" fill="#5966FD"/>
<path d="M45.6314 0.823512C35.6867 0.823953 26.029 4.15045 18.2001 10.2719H18.2146C17.3367 9.74996 16.3344 9.4732 15.3126 9.47057C13.781 9.47057 12.3122 10.0779 11.2292 11.159C10.1462 12.2401 9.53764 13.7064 9.53764 15.2353C9.54544 16.2508 9.82462 17.2458 10.3462 18.1176C4.15888 26.0896 0.858952 35.9184 0.984406 46.0022C1.10986 56.086 4.65314 65.8301 11.0369 73.6461C17.4207 81.4622 26.2684 86.8894 36.1379 89.0432C46.0074 91.1969 56.3168 89.9501 65.3855 85.506C74.4542 81.0619 81.7476 73.6827 86.0768 64.571C90.4061 55.4593 91.5159 45.1525 89.2253 35.3305C86.9348 25.5086 81.379 16.7507 73.4636 10.4843C65.5481 4.21797 55.7398 0.812677 45.6372 0.823512H45.6314ZM15.3126 12.3529C15.8837 12.3529 16.4419 12.522 16.9168 12.8387C17.3916 13.1554 17.7618 13.6056 17.9804 14.1323C18.1989 14.6589 18.256 15.2385 18.1446 15.7976C18.0332 16.3567 17.7582 16.8703 17.3544 17.2734C16.9505 17.6765 16.436 17.951 15.8759 18.0622C15.3158 18.1735 14.7352 18.1164 14.2076 17.8982C13.68 17.6801 13.229 17.3106 12.9117 16.8366C12.5945 16.3626 12.4251 15.8054 12.4251 15.2353C12.4251 14.4708 12.7294 13.7377 13.2709 13.1971C13.8124 12.6566 14.5468 12.3529 15.3126 12.3529ZM45.6314 87.2941C37.8248 87.3088 30.1702 85.1405 23.5349 81.0349C16.8996 76.9293 11.5489 71.0505 8.08931 64.0648C4.62973 57.0791 3.19951 49.2657 3.96073 41.5102C4.72195 33.7546 7.64417 26.3669 12.3962 20.1843C13.277 20.7135 14.2846 20.9953 15.3126 21C16.8443 21 18.3131 20.3926 19.3961 19.3115C20.4791 18.2305 21.0876 16.7642 21.0876 15.2353C21.0824 14.2022 20.796 13.1899 20.259 12.3068V12.3241C25.5416 8.29918 31.7087 5.58819 38.2496 4.41552C44.7906 3.24286 51.5172 3.64226 57.8728 5.58067C64.2283 7.51909 70.0301 10.9408 74.7975 15.5624C79.5649 20.1841 83.161 25.8728 85.288 32.1576C87.415 38.4424 88.0117 45.1425 87.0289 51.7034C86.046 58.2642 83.5116 64.4969 79.6358 69.8857C75.76 75.2744 70.6543 79.6641 64.741 82.6914C58.8277 85.7187 52.277 87.2965 45.6314 87.2941V87.2941Z" fill="white"/>
</svg>
