<svg width="33" height="33" viewBox="0 0 33 33" fill="none" xmlns="http://www.w3.org/2000/svg">
<path d="M16.6313 30.9117C24.605 30.9117 31.0688 24.4593 31.0688 16.4999C31.0688 8.5405 24.605 2.08813 16.6313 2.08813C8.65774 2.08813 2.19385 8.5405 2.19385 16.4999C2.19385 24.4593 8.65774 30.9117 16.6313 30.9117Z" fill="#F5C37C"/>
<path d="M16.6313 32.3529C13.4903 32.3529 10.4198 31.4231 7.80811 29.6812C5.19645 27.9392 3.16092 25.4633 1.95891 22.5666C0.756895 19.6698 0.442374 16.4823 1.05516 13.4072C1.66794 10.332 3.18053 7.50728 5.40156 5.29021C7.6226 3.07313 10.4524 1.56328 13.5331 0.95159C16.6137 0.339901 19.8068 0.653839 22.7088 1.85371C25.6107 3.05358 28.091 5.0855 29.836 7.6925C31.5811 10.2995 32.5126 13.3645 32.5126 16.4999C32.5072 20.7027 30.8323 24.7319 27.8551 27.7037C24.878 30.6756 20.8417 32.3475 16.6313 32.3529ZM16.6313 3.52933C14.0614 3.52933 11.5492 4.29004 9.41241 5.71526C7.2756 7.14049 5.61011 9.16622 4.62664 11.5363C3.64317 13.9063 3.38595 16.5143 3.88732 19.0304C4.38868 21.5464 5.62608 23.8575 7.44329 25.6715C9.2605 27.4855 11.5758 28.7208 14.0963 29.2213C16.6169 29.7218 19.2294 29.4649 21.6037 28.4832C23.978 27.5015 26.0075 25.839 27.4353 23.706C28.8631 21.573 29.6251 19.0653 29.6251 16.4999C29.6213 13.0611 28.2511 9.76417 25.8152 7.33254C23.3792 4.90091 20.0763 3.53314 16.6313 3.52933Z" fill="white"/>
</svg>
